<mxfile host="Electron" modified="2025-01-11T07:30:18.188Z" agent="Mozilla/5.0 (Windows NT 10.0; Win64; x64) AppleWebKit/537.36 (KHTML, like Gecko) draw.io/21.1.2 Chrome/106.0.5249.199 Electron/21.4.3 Safari/537.36" etag="xCHZhjY6RP8bInZsLCwS" version="21.1.2" type="device">
  <diagram name="第 1 页" id="MMMtUoxOUhEehSGxlawP">
    <mxGraphModel dx="2396" dy="2363" grid="1" gridSize="10" guides="1" tooltips="1" connect="1" arrows="1" fold="1" page="1" pageScale="1" pageWidth="827" pageHeight="1169" math="0" shadow="0">
      <root>
        <mxCell id="0" />
        <mxCell id="1" parent="0" />
        <mxCell id="zltHlrUEb8MR5FjfzfhL-1" value="" style="rounded=1;whiteSpace=wrap;html=1;dashed=1;strokeWidth=3;strokeColor=#808080;" vertex="1" parent="1">
          <mxGeometry x="-360" y="-240" width="805" height="198.13" as="geometry" />
        </mxCell>
        <mxCell id="zltHlrUEb8MR5FjfzfhL-2" value="&lt;font style=&quot;font-size: 25px;&quot; face=&quot;宋体&quot;&gt;点云数据&lt;/font&gt;" style="text;html=1;strokeColor=none;fillColor=none;align=center;verticalAlign=middle;whiteSpace=wrap;rounded=0;flipH=0;" vertex="1" parent="1">
          <mxGeometry x="690" y="-229.76999999999998" width="270" height="54.49" as="geometry" />
        </mxCell>
        <mxCell id="zltHlrUEb8MR5FjfzfhL-3" value="&lt;font style=&quot;font-size: 25px;&quot; face=&quot;宋体&quot;&gt;目标点数据&lt;/font&gt;" style="text;html=1;strokeColor=none;fillColor=none;align=center;verticalAlign=middle;whiteSpace=wrap;rounded=0;flipH=0;" vertex="1" parent="1">
          <mxGeometry x="690" y="-109.99999999999997" width="270" height="54.49" as="geometry" />
        </mxCell>
        <mxCell id="zltHlrUEb8MR5FjfzfhL-4" style="rounded=0;orthogonalLoop=1;jettySize=auto;html=1;entryX=0;entryY=0.5;entryDx=0;entryDy=0;strokeWidth=3;endArrow=blockThin;endFill=1;" edge="1" parent="1" source="zltHlrUEb8MR5FjfzfhL-5" target="zltHlrUEb8MR5FjfzfhL-7">
          <mxGeometry relative="1" as="geometry" />
        </mxCell>
        <mxCell id="zltHlrUEb8MR5FjfzfhL-5" value="&lt;font style=&quot;font-size: 25px;&quot; face=&quot;Times New Roman&quot;&gt;FFT&lt;/font&gt;" style="whiteSpace=wrap;html=1;aspect=fixed;gradientColor=#E6E6E6;flipH=0;" vertex="1" parent="1">
          <mxGeometry x="-309.18" y="-208.77" width="135" height="135" as="geometry" />
        </mxCell>
        <mxCell id="zltHlrUEb8MR5FjfzfhL-6" style="edgeStyle=none;shape=connector;rounded=0;orthogonalLoop=1;jettySize=auto;html=1;entryX=0;entryY=0.5;entryDx=0;entryDy=0;labelBackgroundColor=default;strokeColor=default;strokeWidth=3;fontFamily=Helvetica;fontSize=11;fontColor=default;endArrow=blockThin;endFill=1;" edge="1" parent="1" source="zltHlrUEb8MR5FjfzfhL-7" target="zltHlrUEb8MR5FjfzfhL-9">
          <mxGeometry relative="1" as="geometry" />
        </mxCell>
        <mxCell id="zltHlrUEb8MR5FjfzfhL-7" value="&lt;font style=&quot;font-size: 25px;&quot; face=&quot;Times New Roman&quot;&gt;BW Filter&lt;/font&gt;" style="whiteSpace=wrap;html=1;aspect=fixed;gradientColor=#E6E6E6;strokeColor=#000000;flipH=0;" vertex="1" parent="1">
          <mxGeometry x="-112.75" y="-208.77" width="135" height="135" as="geometry" />
        </mxCell>
        <mxCell id="zltHlrUEb8MR5FjfzfhL-8" style="edgeStyle=none;shape=connector;rounded=0;orthogonalLoop=1;jettySize=auto;html=1;entryX=0;entryY=0.5;entryDx=0;entryDy=0;labelBackgroundColor=default;strokeColor=default;strokeWidth=3;fontFamily=Helvetica;fontSize=11;fontColor=default;endArrow=blockThin;endFill=1;" edge="1" parent="1" source="zltHlrUEb8MR5FjfzfhL-9" target="zltHlrUEb8MR5FjfzfhL-10">
          <mxGeometry relative="1" as="geometry" />
        </mxCell>
        <mxCell id="zltHlrUEb8MR5FjfzfhL-9" value="&lt;font style=&quot;font-size: 25px;&quot; face=&quot;Times New Roman&quot;&gt;STFT&lt;/font&gt;" style="whiteSpace=wrap;html=1;aspect=fixed;gradientColor=#E6E6E6;flipH=0;" vertex="1" parent="1">
          <mxGeometry x="83.25" y="-208.77" width="135" height="135" as="geometry" />
        </mxCell>
        <mxCell id="zltHlrUEb8MR5FjfzfhL-10" value="&lt;font style=&quot;font-size: 25px;&quot; face=&quot;Times New Roman&quot;&gt;EKF&lt;/font&gt;" style="whiteSpace=wrap;html=1;aspect=fixed;gradientColor=#E6E6E6;flipH=0;" vertex="1" parent="1">
          <mxGeometry x="279.24999999999994" y="-208.77" width="135" height="135" as="geometry" />
        </mxCell>
        <mxCell id="zltHlrUEb8MR5FjfzfhL-11" value="" style="shape=image;verticalLabelPosition=bottom;labelBackgroundColor=default;verticalAlign=top;aspect=fixed;imageAspect=0;image=data:image/jpeg,/9j/4AAQSkZJRgABAQEA3ADcAAD/2wBDAAMCAgMCAgMDAwMEAwMEBQgFBQQEBQoHBwYIDAoMDAsKCwsNDhIQDQ4RDgsLEBYQERMUFRUVDA8XGBYUGBIUFRT/2wBDAQMEBAUEBQkFBQkUDQsNFBQUFBQUFBQUFBQUFBQUFBQUFBQUFBQUFBQUFBQUFBQUFBQUFBQUFBQUFBQUFBQUFBT/wAARCAEMAksDASIAAhEBAxEB/8QAHwAAAQUBAQEBAQEAAAAAAAAAAAECAwQFBgcICQoL/8QAtRAAAgEDAwIEAwUFBAQAAAF9AQIDAAQRBRIhMUEGE1FhByJxFDKBkaEII0KxwRVS0fAkM2JyggkKFhcYGRolJicoKSo0NTY3ODk6Q0RFRkdISUpTVFVWV1hZWmNkZWZnaGlqc3R1dnd4eXqDhIWGh4iJipKTlJWWl5iZmqKjpKWmp6ipqrKztLW2t7i5usLDxMXGx8jJytLT1NXW19jZ2uHi4+Tl5ufo6erx8vP09fb3+Pn6/8QAHwEAAwEBAQEBAQEBAQAAAAAAAAECAwQFBgcICQoL/8QAtREAAgECBAQDBAcFBAQAAQJ3AAECAxEEBSExBhJBUQdhcRMiMoEIFEKRobHBCSMzUvAVYnLRChYkNOEl8RcYGRomJygpKjU2Nzg5OkNERUZHSElKU1RVVldYWVpjZGVmZ2hpanN0dXZ3eHl6goOEhYaHiImKkpOUlZaXmJmaoqOkpaanqKmqsrO0tba3uLm6wsPExcbHyMnK0tPU1dbX2Nna4uPk5ebn6Onq8vP09fb3+Pn6/9oADAMBAAIRAxEAPwD5qoooroICiiigAooooAKKKKACiiigAooooAKKKSgBaKKSgBaKTI9aMj1oAWikyKOvTmgBaKcI2PRSfwpfIlPSJz9FJoAZRUy2Vw3S3lP/AAA/4Uv9n3fH+iTn/tmf8KAIKKtjSb5ulnP/AN+zTl0PUG6WU3/fBoApUVojw5qjc/YJ8f7tPHhfVWUEWUgB7nAoAy6K1P8AhF9U/wCfb/x9f8ad/wAIrqeMmBVHTJkXH86AMmitb/hF7/8AuxD6yr/jQfC99t3EQhehYyjAoAyaK1V8NXB/5bWo+swqRfC900bOtxaFUxuxLnGaAMaitT+wG/ivrNfrL/8AWqSHw20wkZNQtGWNd7bWPA9envQBjUtan9iwt11W1H4mpbfw/FcM6x6nA5VS5AB6DqaAMaitM6XYr11aL/gMZqez0OyvZhFFqatIQSB5Z7UAYtFav2HS1YhtSfPoIams9J0u+uFgi1CUyP8AdzFgHjpQBh0tarWujRsVN3c5Bwf3Qqaz0/Rry4SFbu6DucDKADNAGJRWvJDo0EjIz3hdSVI2jqKfax6FNcxRMbpPMbbuYgAfWgDEpa2btdHsbiSCW3ut6HBG8Ckt5tClmRGguERiAXaUfL70AY9Fbl9/Zmm3UlvJp0paM9fN6+hHtTIL7RWmRZNPkRGOC3mk496AMaiug1A2Wm3TQvpG/HKuJGIYHoajt76xMi79ExET8zAsSPegDD49aK6bUkGnXGxNDjljcb45NjHcvY1BFcF2Ak8Pjyyfm2RNux7UAYFFaOuaPJpFwmUYW8w8yF2BG5fTnuKzqACiiigAooooAKKKKACiiigAooooAKKKKACiiigAooooAKcvSm05elADaKKKACiiigAooooAKKKKACiiigAoopUVpHVUGWYgD6mgDW0ewAsrm/ltGuY48RxR4JDOfp6CnfbJO2hR8+sTGtfULHV7GO3sdPk8uGFMuVlUb5D1P9KpfZfEHG68wPecUAWNI824+0zTaHAIYIy2PIOSx4AqoLvUCONFhB9ratK8s9Vt9Kt7c36iaQmWVmuADjsPpWW1hqffU4V/7eqANLRzqF5fBJtNhjgVC7/6OBwBVb7Xre5vLsIUXPA8has2+m3Vvodw8upwCa4cRozTk/KOTg1lf2RNkbtXtf8Av+aANXTW166voYngiSNmG4+UgwO9MvLnX/tc3kJEkIY7AFQcVHo+mC1W7u5NTt2EcLKrBycM3Az+tZS6TCuN+rQ5/wCBUAa6S+JZGVfOUBiBwU71a1v+221OYW91GkK4UfvEHQVQ0HS7L+1oHbVEkEWZCqoT90ZqjPY6dNM0smrAlmJIWI9zQBfaPX9vOoquf+m4q3rlvqa3EMceqrGI4VDD7Rj5sc5rHtdN0ua6hQanIxZ1AXyTg81PrkOkTardM2oTqd2NqwZxjjrQAfZdTYfNrcY9c3Jq/qtjP9j06M6vEjiIsx84/Nk1h/ZdDxzfXTf9sAK09aXRlktI5pboeXboF2KORjP50AU2092+9rkWfeVjV+4sF/sG0VtYj/10jeZljnpWWV0BR96/b8FrUu20KPw/p4Md6yGSQg7lBzkUAZv9m2v8Wspnvwxq/wDYrH/hH2U6mWUXAJdYzx8vSs5ptC/59bw+/mgVpW91pH/CP3ZFjcNEs6E7p+ckGgDO+xaV31Vz9IjWjY2+lnRdQjW9ldQUdm8vpzWcb7Rx93TJD/vTmtHRdS02SLUI49LUBoCzBpid2COKqwGX9l0Tr9tuT7CIVq6JBo3l30KT3Uhkt242AdMGssarYdV0SH2/evWnoOsW7apDGmkQReZlNwLE8ijlfYZlgaEOjXbfgK0/D02jLqQgWO6b7QjQncwxyP8AGqbanHFK6Lolp8rEfcan2uuS29zFJHo9qjKwIYQninySeyFoV2l0SKQp9muiVJBzIO1WtJ1TRbTUI2W0myx2EvLxg8GrWs3t5Z6pcRppluy53BvsxJIPOap/2tqq8pp0QPX/AI9f/rU1Tm+gXQy8m0mzu5oH02YvGxB/fGktNX0uzuYp49LfcjZG6YmtnXL7Vnmt7mK04uYRI3+jgnd0YfmKzRfa/wDw2230P2cD+lV7KaV3Fiug1eSws9QkjXSQyt86tvbBB5qtDq0FvNHLFoyB42DA5bgg1vXU/iCfSLS4RJBKpMUg2Dn0NZvneJm/glUf7iisiiTWJY0uEuYtGjkiul80MVbgnqPzqkmoSRsGTRIQVOQ3kscGtuFfEN5osql5Fmt2DqSyglT1ArNaHxGR/rZP+/yikIuaxdXFxFbahFo0B+0AiRTbnIkHX8OlZgvtR/g0aEHP/PtWvpdtrF1DdWlxOQ0i7oWacZDjt+NZf9n610a9CnuGuQKANW+vtUvtPhvU06JZwfKmU2w59D+VZ/2vXegsIR/27LVjR7O+huWju9QhNtOvlOxuclc9D+Bqld6Ff287xS6nACpxzOeR60AbL3Ou6hpZl8hFurfCsDGmWTt+VZwuPEi9FVf+AoKh0+zmsLyKY6pauinDq0xIZT1FGreHRb3JZNTtxbSfPEzSH5lP+f0oA2bebXtR0ySKSXy76HmN9yfvE/u/hWY3/CR/8/ePUeagqhb6elrMkqatbrIhDA5Y81c1bRdPuGF/FqaRwS8NhCQr9xQBpWK6ze2slpc34jkUboJfPXIP936GstrbW1YrJqojI4Ia4xiqC6bpqsP+JuM9dwiata+sdL1i1F4t+xniUC42w/e9GxQBJZWMl7C9nqepW8kT/NHJJNkxt7exrlry1ksbiSCUYkQ4PofcVfWx0dfvanMcdcW//wBetG6jsdc0+OC1uJbjUoAdjSJs3xj+H3I7UAc1RQQVJBGCOoooAKKKKACiiigAooooAKKKKACiiigAooooAKKKKACnL0ptOXpQA2iiigAooooAKKKKACiiigAooooAK3PC1jFJcTXk80cEdsuVaX7u89BWH9Bk9hXTXsOn2mm2unTXckM6/vbhVjzlz0H4CgCjJo0M0jSSa1a72OT941Np/h61u7yKIazDIM7mVUb7o5P6VVNrpGebyc+u2IVq2MWk6ZpNzd+fdFrj/R422AEd2NAFbVrfTtQ1CWY6zGFJwqrC3CjoKprpmlbgP7WZiTgbbc0bdFXq1434CtDQ49Gkvll2XTrbgzHcQBx/9egB+t2ukQm2sTqEy/ZY9rYgzljyazfs2iDrfXLfSECnXF5pFxcSTNb3bvIxcneOppqTaQzqq2NwzMcYMooA05U0ez0GGFpLxlupDMGVVBIHAGPTNZv/ABIe5vj/AN8itHXb/So7tLZtPd/syCIESkDjrWb/AGhpY6aYfxmNAGppLaPbWOoXSR3ZATyjuYA/N6Vledoq/wDLpeN9ZgK0pdUsLfQ4dumqVuJC2xpD0HGc1nf2zYfw6TDn3c0AXtBm0htUgMdjcBlO/LzZAwM1Sn1HSpJ5GOnOxZic+ceea0tD1a23Xc6afbxiGBjnk5zwBWZ/b6YGNNs/++KABdQ0vcoGlZyQB++NaHiLUrFdWkQ6ZG5jVVyXPYVVs9eaS8gRLCzXdIq8Re9WNb8Rzrq13stbbHmEA+T6UAUf7UsiONJh/wC+jWlfatDHoulgabbkN5jBSDxzWeviO+7W0P4QCtXVNZ1GPTdJZIhl4mPEHT5j7UAZP9ur0XTLbj/pmTWpZ6xK2g6iy2VuCskRCCHIPWqH9uay33Ucf7sH/wBatXT9S1yXRdTyJt6mMriHHc+1AHJ694s1S1axhs7W1glupxH5jWuccE8D8K0tDm8T3VzJC19FCWif5o9PUdBnFYvjK81pG0SedbhWjvl8vdHt+Ygjj867PQv7fbWLcTi68lmIYsMDkV9lXr/Usvw0qUVeV7u3mYL3pNM5jzPFJ4F/Iv8Au2Kj+lS2q+LPtETf2pdJhh8yWigj36VqzWviRpHA+2FdxA+bjr9aibT/ABF1P2n8ZQP615n9tYm1rR/8BRfs0RarpvieO8ngOpahKqtwywqCR68CqDaF4mk/5iWqj05A/pXTeINL1ebUEeKRgskSNt88AA4571l/2Fq5Yhp1B/2rof41CzzFRlaMkn6I2+rScPaqL5e/QivfCmvxxWkyapq0pljy+6cdRxiqsnhPW5v9Zc6kTjGftWP61vvod9N4fjVrmISwzHP7/wDhI9azD4fuud17a/jcU5ZzjJO/MvuRnyRGf8IBeTaPJKbzUPtUcoBDX5HyEfX1rkdah1Lwr4i0iAXlyEutwkD3W9cE4BJzxzXoGi6IwluYJb+1YTwsqhZNx3DkVw/iLw2l34hgs3vbclrCZg2SQGBGB9eK+m4fx9XGYidLGSvBxf8AkYVY2SaPQdI0XUp4byzmvIszR7oyboEiQcj9M1k/2HfH7+o26j0N1VPwnHbzWWn6gdTt4pPlLRsCWBHBH6Vp6toNhDqE2NUhjjc+YgMZPynmvhMRSdCtOk+jZ0rYl0vTZbK+jeXUrQwEbJAbjOVIwarXvhc2l1LG+q2qbW4DSnOOx/Kqp0nTl66tH+ERNamp2On39jbXh1H/AFa+RJIIT8xH3f0/lXOBSt9Jht5klGs2oaMhgcselXdc0XT5LhbsatAkN0N4+Rsbv4gPxrLFlpI/5iMh+kOK1bKDSb7TZdPF1PJKp8+I7AMY+8B9f6UAZR0nTM86xGf92Fq17yx0vUtOiuv7SZprYCOd1g6j+E4rJ8vR8H99eH/gAq7pNzolncMrm7eOZfLkU4xg9D+BoAp/ZNHH/MTnYe1v/wDXrUsYdI1LTzp/2q5llQmSAmMAj+8o+tUr6z0rTbqS3kjvGZejKwwR2I/Coob3SbOZJY7e7DodwPmDrQAnk6EpI86+J7gIoq/pt9ocIktGN41vc/K27bhD2b8DS6u+kyRxajHYTGK4JyFkwEcdQazft2k9tNk/GY0AWL630nT7l4JYbxnU4zvADe4p2m6tpGmXImjs7p+MMrSjDD0NXl1Gw1rTyRpge5tE4UynLp/9asn+2NO7aTGO/wDrTQBb1KHSLNYZY7Oae3mXejibAB7qfQiqkOqaZbzLJFpsiupBDGc1f0zxBYzf6BLp9vDbStkEsTtfsaq3WopY3MkMml2qyIcHIJFACaysOrJJqllD5IyBcW6nOw/3voaxa3bHxYbKVmj0+zVHGxwE+8p6iqWraetsyXFuS9nNzGf7vqp9xQBn0UUUAFFFFABRRRQAUUUUAFFFFABRRRQAUUUUAFOXpTacvSgBtFFFABRRRQAUUUUAFFFFABRRRQBq+HLeJr77TchvstqPNk29/QfnUlxNo9zcSTSzXkkkjFjwO9WW+wafpENpdmdZ7jE8nk4+7/CDmqStoY6x3zD/AHlFADlXRJJFRFvWdjgA4rQ1q50iN4LJre5YWibMLIAN3Uml0NtGjmmvFtbvbaLvO+QYJPQVRk1DRpHZzYXTMxJbdN3oAi+0aN2sbk/WatOC60zT9EmlXT5MXTeUA0xztHJxWd9s0fcFXSZXJ4Gbg81o61qunWrw2P8AZQlW2QLzMRyeT+NAGX9v0pRj+ymP1nNXtEutPm1CLbpYjEeZSzSk4C81T/tmwGduiwn/AHpGNaen6xbW+k314NKtI92IEHzHcTyf0oAzbjXLO4uJZW0qEszZJLsajbXLccLpdp+OaefEEa9NKsV/4ATU1jrRvL2CBdPsV8yQLkRcjJoAt65riWosrYafZ4jhBKlehPOKy18Qn+GxsR/2yzVzVvFE0mp3JW3s3VX2qzQAnA4qt/wk93jiO2Qf7MC0AaVl4gmi0W/uFtrRMskQCwjBzyaz18UXf8Nvb/hbitGfxFfQ+HLVw6B5p3b/AFQxgcDjFZf/AAk2qdpsfSIf4UAaOjeItSm1W0UIiqZVztgH+FV7rxHrLXc+1n27zj9wPX6VP4f1zU7nVow07lVVmOEx0Un0qh/bWsyFsT3Byc8L/wDWoAl/tzXmHDTf8Bh/+tWnq1/rq2OleS90C0BZ9qdyx9qxv7Q1onia7P4H/CtTWn1fyNM2G7G62VmxnkkmgCj9q8Qv1a9/75NaOnjW5dJ1cSfavM2RlCxOfvHpWR5est2vD+daelWeqyadqyvHcljCpTcTnIbtQBxfjyLVYdLtJ7r7Tsju4iPMcnkmuv0vT9XTUrWSQzCNZVLbpcjGfrXE/ES01C38OLLcpMsS3EfMhyBzXUW2j6szQzCGQr8rDc46fnX1+Op/8I2FqeckYQ/iSLeqaDqv9pXKqW2eY2398Bxn61V/4RzVC2GK/wDApx/jWj4i8O6g+tXTpEArsGGZB3H1rOXwvqDZG2Nf96UD+tfIo3Ni40e4+z6VMzQsyRmNt0o7H1/Gs248OzzTPL51ogY8Dzgavf8ACN3MvhsIxt0eG4yP3w6Ed/yrMbwzNHkPcWpbIP8ArRXI8PF1/b9dj3IZvXhl0ssSXI5c22tzR0vw+7afqFs93a/PGJAFkzyp/wDr1m/8I+nfUrNf+BE1o+H9E+z6rE0l/ZhHzG6+ZyQwxVGbw0kEzo2pWibWK4JOR7V1HiEljpUNneQT/wBq2o8tweMn8Ky9c0O0i+ISob6KOMWjyB9pwAz8Crn9h2/RtVtOPrVHUo7S/wDG0CNqMOYtLVXm2kgkPjH5V9Fk/NH2049IP80ZVNkijoen2VvqWqae+pRxxRSCWJxGSGVuePoa7C+sdPvdItZzqO8wfuXdYj9RXIapp9jp/iLS7gakrw3BNtMyocLkZU/mK67R7LTZI7yx/tJpDcJ8irCeHXkH+dLOIqpOnio7TV/n1CD0sZf2PSF66jMfpFWno0WjzJcWH2q4k+0L8oMWAHHSs02ek9DqEzY9IMU6AaVayRyx3l1vRgw/dDqK+eNBGh0SNirT3hYHB+QCprO60Wxuo542vWaMhugFWNctdIjuln8y88u6XzlCqMe4/OqH/EkAyVvW/FRQBe1a30W1uhJ5N0Y7geam1hjB7fhVH7Rof/Ppdt9ZQM1pwTaTqWlPCLe8ZrPMgHmDcVPUD6dazvtWhdrG8P1mFAGnNeaVq2krL/Z8xkswEbM3zFOx/Csr7dpI6abIfrMauaXrOjWF1u/s2by3BR90+RtPtSalJpWm3jW50kv/ABK3nthlPIIoAm0jVtMm8zTpdO8u3uSMs0xO1h0b+lUbi8tLOeSJtIjV0O07pGpv9q6cuCNGj/4FKxrWvNWttS0/+0BpVpJLFiOdWLcDoGoAzbXxFDp9xHNBptusif3iT9RVnVb22gMV1babaNbTjILKflbupqodcgXAXSLEfgTV/SvE0Vw32Cays4oJTlD5fCydiaAMz/hIdvK6fZD/ALZ1sR+IJNaspGS2szqFuo+UxAiSMcce4rNutcubO4eGSyskkjJUjyB+dJb+Lr21mWWFLaKRehWFRQBH/wAJVcjgQWa+wgFWbfxDJqKfYNQCfYpDx5Ue3y37MMVZ1TXLryYr6zMKW03ylRCp8t+4PFZv/CU6l/z3GP8AZjX/AAoApajp8um3bQSjDL0PZlPQiq9b630viaD7LdEvfxjMExXG4f3P8KwWVkdlYFWXgg9QaAEooooAKKKKACiiigAooooAKKKKACiiigApy9KbTl6UANooooAKKKKACiiigAooooAK0NBs0vNSj84kWsX72Y/7I5NZ1dHbw2dp4fEdxdG1uLxtx2puPljp+ZoAjv7rRdQu5bh3vmMhyBtUYHYVV36IP+Wd83/A1FJ9l0pet/Me3EVWdN03Sr29iiW6uHGcn92ANo5P6UAXrybR9N0aC1NpdF7k+e480Zx/CD/Osr7Voy9NPuD/AL01WdWutHv76aZnuyCdqqqjhRwKrbtE/u3jfiKANHQptJm1BZP7LZUt1MzNJMSBjoPzqnca1p91cSTSaUrSSMWLNKepq9DLo9loMreRdE3b7RlwDtXr+GazftGjDpZXJx/01FAB/a1io40eEn3dq1NU1i3sNNsLQaZbZZTcOhzwT0/SqFrJpV1dRQpp8paRgozL71PrOs6bNqU5OmB9hEanzTjAGP6UAVG16I4xpdmP+Ak1o+H9aDXzzCxtIRbwvLuWPuBgfqazP7UsB00mP8ZDWlaapawaLe3S6bCokZYNmSQ3c0AZreIpmJ/0e1B658sUjeJLnHEduv8A2yFKdegH3dLtB+BpU14M6qun2gJOB8maANDWfEV9bWumQB4wfI3keWvVjmsv/hJNQPSVR9EH+FaviHxBLDq0kSwWrCFFjy0QJ4HSs/8A4Sa67Q2o+kIoA0fD+v38kt5I85xHbSMCFA5xgVjL4h1RgD9qkB77V/8ArVsab4hu5NN1WU+ShjiUDbGB1asw+KNQ6CaJR7RrQBEda1Vul1cfgK1tevtT/wCJcFluebSMtjPWstvE2o8n7Tj/AHVFafiDX7+C6t0ju5EAt4zgHuRQBmfatWY/6y8P/fVaWjLqU1vqgb7Ux+zEjdu/vCso+INRbreyE/WtTQ9Wv7hdRV7mZx9kcgEnqCKOgzhfiNb6gvhOZ50uPKEiEmQHHX3roLPTdTmsYGSGeQNGpVgTgjFYXj+6vLrwndrLLO6fKdrE46itPQ5L+bQbBlNyf3C/dDY6V95ive4bw8u05fkcsf4rOm8RaHqMt/DIlvJiSCNj83faM96zR4b1TP8Ax7OB7uP8ava3b3s0OlyLHcHdbKG2huoJHPvWZ/Z2pNki2uj9Q1fCHUbel+Hb46bqltJAE8yNXT5x94N9azl8L6hxlYV/3pl/xq14d0bUJL9ke0nCSxOhZgcZxxUVh4C8RaszrZaLeXRj+95Ue7FIaTb0Gx+GryORHElsGVgeZxWh4i8NyT6tJcJc2apMqyfNOByRzUsPwd8bTnA8L3+e+6MD+tHiLwXrFnHYw3untaXtuphkhmIVl5yMj6GgbjJbox/+EbZeDqFiB/11zWVp/h2O48ZamjX1vug09JFkRiVxv5Fan/CK6go+ZIo177pVqv4V0aWH4g3qSSW6r9jSOTMoxhs//Wr6TKZctLEv+5+qMJ7oq+JPDtvJolyY9WtZJ4l86NUzncvOBxWhoP2Ew2GoDV404WXYImJB7ipX8MyRmSNruyAUkEGUZ79awvDeimP7Zp73tpGbOcqN0nVW5GPaph/tOWOPWm7/ACYvhmdRrWk6Ra6hKy6o8aTYlRRbk5U81R+x6QGx/acx4/54VqXmjR3mj2znUrTzLYmJiCSNp5WspdDtFzu1e3/AMa+dNjUjh0m+0V7cXl1IbNvNz5IDBDwQB35rMWLQ1OTcXr/9swKuaRa6fYX6O+rxtE2UdVib5lIxUF5oun2d1JDJqewqeFEJPHagRJp+oaNpl9FcKL5wvDDKgFTwQfwp2pQaLp946G3u2U/OhWUYKnkVSWz0kMf+JlKfpCa1Gg0vUtHH+lTO9lwX8vB2E8flQBnfatF/58bk/WYVp/btM1PSdx013ksRgK0x3NGe+fasny9GxjzbtvooFW9NvtG026SXbeSDlWUlQCp6igCr/aWlj7uk8f7UxNXNO8RWFnMR/ZEQhlHlyjeT8ppmpWuj6fcbTDdOjgOjK4wVPIIqt9o0Xr9kuj/21FAFzVLy20u68kaVavHgGNyT8ynoaqjXoR93SrMf8BNaUN1pmr6e0QsZWmtF3IrSfM6dx+HWsv7dpf8ADpbE/wC1KaANebXBrGnvdCxtDeW4AlHl5LJjhvwrH/4SJ/4bS0Ue0VWbHxFZ6fcLLHpUeehzITkdxiptWuLGxkjlh0yCS2nXfE+Tz6g+4NADNN8WywyGGeK3+xy8SIsY49G+opmo6xf6bdNCxhK9UdI1wy9jVf8Atq3H/MLtQevQ1q6frY1qA2ZsrUXMSn7PlOG77f8ACgDKHijUFIZJlRgcgqgBFPvmXXrZ75B/p0f/AB8qo++Oz/401vEEyEgWlqpU4P7roafbeLLy1m3pHbrnhgsQGV7j8aAMaitPV7FFSO+tPmsp+g7xt3Q1me9ABRRRQAUUUUAFFFFABRRRQAUUUUAFOXpTacvSgBtFFFABRRRQAUUUUAFFFFAFvSLH+0tSgt8hEY5d26Ko5JP4Vq6vp6aheySLqFmkQ+WNd/RRwKNO0u9g0CW5t4HeW8PlKyj7sY+8fxrOHh3Ud3/HnJ+QoAlGhwd9UtPfkmtXT9LtNM0u6uG1OESTjyYpApx/tY/CshfDWo5Ci1IJOOSK1dd8P3u63s4YlMFrGEDeYOWPLH86AM3+y9PHXV48+0ZpRpemswUaplm4AWI80n/CM33cQj6yrWjoPhmddSSaaS3EUIMjfvQRx0z+OKAHa3b6THJBaHUJB9ljEZURfxdTWZ9l0cdb24P+7HT7jQrieaSV7u0DSMWOZh3po8Pgfe1GzX/tpQBo6DHpEN1LdLLdOttGzncoHOMDH51m50VmLH7YxPJHFaaaTb2egSq+p2qtdSgBucbVH+NZn9j2Y66vB+CmgB3maGP+WF4f+BitK9uNKtNFsofsk5WRmm2mT8BWZ/ZOns2P7YjyTgbYia09etNK+2JC+puvkRrHtWI9hQBl/wBoaSvH9myN9ZjVzSb3TJtTtEXSRnzFOWlJ6c1T+y6MuR/aM5+kNafh+HRo9QMy3V3J5UbOf3YHbH9aAKmoa3Yz6hcP/ZMTFpGOWc+tV/7YtF6aRa/izUrLobMxMt6dxz91aT/iSjkC+b/vkUAadrq8cfh+/lXTrVA8kcW3acHqazP+Eg24xp1mP+2ea0/N0mHw0oNvctHLdE4LgEkCss3WkZ/5BszH/anxQAN4ilwcWdmP+2IrU8Ra9c2+pFEWD/VRn5ogcfKOBWW2oaVtx/ZTY95zWp4k1Kwj1Z1fSkmdUQbjKw/hGKAMv/hJb7HBhB9oVrR0DxBqE890rzjH2d2G1B1ArP8A7Yseg0S3H1kY1p+H9Wt31B1i0y0hzBJnAJz8vTmgDi/Hmv3934UvIprpnjbZlcAfxCpfCfiPUo/Ddgq30yIsQAGRgU/xprCXPhe7iGn2kQJRt0aHIwwrO8L+P4tP0G3ga1hcxlgD9lLHGT3r9Np4Wri+F4Roxu1Uf5HI5JV3fsdtfa1f/wBiabIL2YMxkViHxk5rJ/tvUHbH264b/gZp0nxSifR41S2YPHKRgWOVwQP1qmvxLuPvR20zf7tmBXxyybHbcn4o39pHua2kapdf2xaGS4mdfMUMCxI9K9k+D+i3Os+B/iVYf2rNpbo9u0V3ucbT5mB05wcgV4F/wtHU1lBWzvhg5DLbqK96+CPxL1X+z/GITwjqesJOLVxHOFSEfOMLIcjCseM+9OWSY2Ku4r70dWHrQUn6Gd42+Fd94B15tI8SeObq21FVWQxgTuCrcggg4Na/7S2g/wDE7ja0Sa5zYWszS7G+Y7dpP44Fd9+0f+0N4is/ANrpmqfBS58NajfRJaR6j9qSaJI1YNsjkGfmx681wXxk+Lmr3GqXmmXHgvVNN1HU9MhWETX6EIi/MGwOpPPNZU8pxM1ze6l/iX+YRxCnRd0eGDR7/grZzkf7prJ0vS76TxlqwitZDLDFAxGOV680648VeI2VFWz5TOSbrluehq9b+KTq/wARLnVL+BdOUxWu6xhkLKyLwwB7/j619BgsuqYfCYmc5J3j0d3ujilNNqxua94evZtSaaG0kZJkWTPHUjkVy15oF/pfiWyMlq0S6ghiXdgbnXnj8M16d8S9QsNe02x1DSr3zntm+zTeWhTdn5g2Pbp+FYPiW60DUPhjojXV7M+t6Rd+e0UYbLQmQ71z0yF5Brxson+/dCW001/kXLuLonh+/aO8tJYPLW4iyhZh95eRistvDN+v30jjI42s4BFd/wCD7fwjrOuaK51Caaxgs5pgkszRYkDkxgtjuMdK1PiVJ4LvNS1+8tozdX2oWcb27YkCxTAjJTjncPXjivEqRcJuD6Gi11PK/wDhHbnA3S2y/WYVp6nob3tnaXIubUSKghm/eDAYdCT7isJbGVrM4gczb+mw7sY/LFeirDbah4LsNGjMMk0sXmSItqySQyqPlXPfPc+pFZgcI2g9m1GyX/trV3R7CGwvg02pWphdSkq7iflPWvSJ7rRpPD9xHbw28d6LcokM1ieQVwIyw7ggn6kVx+leG9Cb4f6j9vtb5fFfmf6Gyf6spxww6c80AYN94ct7O6kifVbdcH5QVOcdjUA0mx6Nq8P4Ia0b7Q9Q1LSbWc2rC4g/cvyMsuPlP86zP+EZ1E/8sAB/tOtAGrHY6dqmliAal5lxZ5YFYz/qu4/A1nfYdJX/AJibN7CGrGm6LqOn3sdwEhG08q0q4IPUGnap4SnhvXMUlv5DndGzSgcHtQBFZPpenXUc8V9cF0ORiIc+oqxrFjokcy3MT3f2a4y8e1R8vqv1ql/wjU69bm0X/tsK0tM0Zbizl0+4v7UBzvgw+SJB2/GgDL26J/evG/KtLTbjR7y3OmMt0Fd90TyMPlb0H1rOk0GKNysup2sbKcMMngjrQNHtFIP9sW+euVBoAWaTSrWVonsrnepKndIOCKRdQ0uFldNOl3qdyt5x4Nat9pmn6pai9XVEM0ShblljJz6NWSbDSh11Zj/uwmgDVvrvTdRt21NdMVpM4niEh+U/3vxrL/taw7aPF+Lsat6ZJo+nXG8380sLDZJH5XDL6U3UdJ0awZGN3dvBMN8TrGMFfT6igAtPEVoI5LSTTYYrW44kZSSR6MPcVlanYPp10Y2O9G+ZJOzL2Iq0V0T/AJ63rf8AAVFaEM2l6lYDTVa5E4bNtNPjap7ofY0Ac3RTpY3glaKRSrocMD2NNoAKKKKACiiigAooooAKKKKACnL0ptOXpQA2iiigAooooAKKKKACprK1a9u4YF6yNjPt3NQfhmtzRJxotlNqhRJJWPkW6yDIOfvH8BQBBrGrPJetFbTsltAPKjWNiBgd/wAaoNeTN1nlP/AjWgPEUoHFnaL9IqX/AISa6HSK3Uf9cRQA7w+WE815KzvFaoXwWJyx+6PzrLkaWeRnbeWY5J5rpL3XrzT9JtEDRrcXH71wsQHy/wAIxWX/AMJNqJ6Tgf8AbMD+lAGd9nkbH7pyfoa2IbOez8OyEQP5t5JsHyHOxeT+tQL4i1WRlVbpsscABRV3xBr19DeJax3cgW3QIdp/ixz+tAGMul3bci0l/wC+DTxot8elnNj/AHKcda1Bv+X2b/vurWi3l5fatbRPdzFN258ufujk0AXNc0S/C2VpDZSssEILbV43NyazP+Ef1P8A58pPxAFJqGr3N1ezzCeVVkckKHOAKqG8mI5nkI/3zQBtaP4X1GTUrYPbbU3gsWYYwOaZqGgaldX08phT53JyZF6Z+tR6DMYzfXTyMRBbt95u7cCsbcD/ABHJ560Aa3/CM33cQj6yrWlpPh+4tbTUJZJbZN0XlrmYHqf/AK1cvke5Na8cfl+GZjtyZrhVGAeiigA/4R1/4r2yX6y0v/CPp31SxX/toazBbyN0ic/RDThZ3DdLaU/9sz/hQB0l5pFtHoOnxtq9opLux6kHmsz+ybD+LW7b/gKMasavpd6bHS4Vs5iVhLECM8ZJrNGiagf+XGf/AL9mgC3/AGXpalQdYVuR92FvWtHxFa6VJrVz5uozI2QNogz0FZMPh3UmkT/QpgNw6ritPxB4c1O41y7eO0ZkLcHI9B70AUPs2hjGb+6Y+0Fafh+PR01JfJmvJGZHUhkAGNprMHhbU+n2YKfVpFH9a0/D3hvULfVoXkWJUwwJ81f7poA5XxcdHXwzqQhF6ZRHxv24yCKreCptKGkyLLb3LMs7j5XAGM5rR8QeG7oaHqLO9tsELtxMpPHNZPgPS/tml3LrdW0OJskSyYPKg1+j4aUv9VqqW6qI5Gv3/wAjuLW60lvD15ixmZElRiGm5OeMis7+0NJ/h0uT8ZzWjpuioukalE2pWfzKrDa+ehrMOhwL9/VrUfTJr8+9tU6yZ12Qf2lpyg/8Srn3mavoD4Q/ZfEnwz8bW2bPT2urG3TzbmRljH7zA3H618/jSbJPvaxB+CNXoPgvxNo3hfwzqNjfzPqGmanC1lP5IKMPmDqV96h1JvRs6aEoxlqdZ4m/s6DwvYeENU8VaIs+lXjyys9zLcRFj2VexHqDSftKeIYbL4paK8ENrcwf2bbMtwVJyhHUe1cMLz4Ywr/yDNSl7fNOaqfELxVo3jjVrS6DXNnDaWkdnDEq7zsQYBJPes4+7oi24xpuK6nP6pqzWeo3EAsbPMbkZ8rr6Guc1TXJbfxDpWoLb26ZV7VlWMbSDyCR9RXXa/HpM9zBdyTXQFxCrjYgwTjBrk/FtvpMmgzm3N008JWZN2APlOf5Zr6DJ6lsUqctppx+/wD4JwT2Or0XXru+jvrU+UpaIyxhYwPmU5/lmsibxBfXMMkMki+XIpVx5a9CMGrWh6lo1vdWd2kN0c4Jy4xgjBpdTXSbPUJ4TZzttbj971B5rybzwte63i/yHujnfCviLUbXSxp/2jH2JjABtGcD7p/LFdXNr+o3GhQzpeSebA5ikPH3TyprlYrrTrHxRIPsDm3vIQyqZMYdeD+mK6zRb7T5pJ7JdP2rcIfvSk5YcivVziEViPbQ+GaTXz3/ABFC9rMyW8Qai3W7kP401de1GOVJPtc2VYEfPU51Wzjyv9kxbh13OaT+2bftpNr+JY14JZP4ivbn7Ys8d1IILhBKmHOBnqPzrIN7ct964lP/AAM10kOtJf6JKFsLUPZEOqbSco3X8uKzP+EgbjFjaD/tnQAmhagVvDBPKxhuF8tiWPGeh/A4qheQy2tzLBIzb42KnJNaH/CR3C8pBbIfaIVp6l4hvLqxt9Qj8ncf3U/7kZ3DofxFAHLbS3Zj+dbNpG2raTJasrG6tQZYflPzL/Ev9aiPifUO0iD6RKKdB4s1KC4jkFxnac7doGR3H5UAZv2SVukEh/4AakisbsOrx28odTlWCHr2rY1rVr+G6WWG7kFrcL5keMceo/A1mtrmot/y+Tf99YoA0tW0m71K3i1KKzkDyfJOuwj94O/41mjQNRPSxmP/AAGrmk69crcmK5u5Xt5hsfc5+XPRvwqpfS31jdSwSXU2UPGXPI7GgC7pWnappt0rixmKONkkZHDKeoNLqXhHULW8ZIoC8DDdG+4fdNYzXc79Z5D9XNaunTNq1m2nSS/vhl7ZmbGW/u/jQBD/AMIzqJGTbqB7yL/jWrpuh3Vxavp90Ykjb5oZGlX5H9Poa5dsoxViVIOCCeRTdwyPmoA2W8L3cTFHkt4mU8q0oBpF8OyAgm+s0Pr5tPnC69ppuFx/aFsn70d5EHRvqKxVUnGASPpQB1GqaWupab9pS6tZ9RgGJY4Gy0qD+L6iuXqxZzXFpcRzQq4kQ5BCn8j7Vf1fT/MhXUreJ47eRsSoVIEb+n0NAGTRRRQAUUUUAFFFFABRRRQAU5elNpy9KAG0UUUAFFFFABRRRQA+GFriaOJBl3YKB9a6LVo9JZ4bU38ipaps2LHn5v4j+dU/D9vLFFdaikLOIV8uPauf3jdP0qiNJvpCWNrMWJyTsPWgC35Gij/l7uW+kYqzYafo19eRQpJdMScklQAAOTn8Kzl0PUD/AMuc2P8AdrX03Q9Qs9JvLkWzieb9winrj+I0AQ6tfaLfX0s3l3e3O1QpAAUcDFVftGigf8et231cCmL4b1L/AJ9SPqwpw8M6h3iVT7uKANLQpNIa8acWUwW2QykyS8cdP1qjcapps0zytprMztuO6U960IfD93Z6BL80Cy3UoXDSD7i8/wA6zW8N3Cnme1X6zCgBP7U08dNJjP8AvSGtLStUtYLO+vF0uBPKTy1+YnJb/wCtWb/wjrr96+sx/wBta07jRUtNEtrdtQtVeZzMzbsgjoKAM3+3IhjGl2g+qk0f8JFt4GnWQHtHmk/se1XhtWth9ATR/Zen99Yj/CJqANRPEU1v4fllW2to3nnEYAiGCqjP8zWZ/wAJPejolsv0gWtLVNP06Gx061fUyu2MyHEROdx6/lWb9i0j/oJTN/uwUAJ/wlGof34l+kK/4Vo3/iG/h0fT8XG15d8hwijjOB29qzjb6Mqk/a7pvpEBWlr0WkQzWtvI95uhgUYULg55/rQBkt4j1Nv+Xtx9AB/So213Uj/y/wA34Nip/wDiSr/DeN+K0qSaMXVRa3ZyQOZAKALXiLVL2O6t0F5OCsCZxIR2rJbVL1ut5cf9/TW74ivNLGrSK9hK7Iqr/rsDgVnf2hpSdNH3/wC9cGgCta3lzNeW4a5mbMiggueeRU3iKR21q9+dgPMOBuNXNN1WwbULVU0aFS0qgEysccinaprVtHqd2DpFrKwlYF2J559KAOf3NjBY/nWl4bYLrlrk5G4/yNSf8JBET8mk2afgT/WtDQfEDtrFoq2VnGTIBuWLmncDk9SjWS2vY/l+ZXB/WsDwTGqWtwAd3KN/46K77UPEVyxuovs9p/GnEAz3FcX8PdYvNNW5WIxqWRM5jU9AR3r77LpOWQYqF9pJnPPSojsNBHmJqEYBO+3PGPQ5rMWCTAxG5/4Ca6TQfEmo3GoGFp1AeNwdsajtnsKyz4i1LGPtbj6AD+lfAHQUhYzt0t5T/wAANbFtp9zL4cvIvs0peOdJFGw9xiqX/CQak3/L9N/31WjoeqXt4uoQvdzMxtmdMueCuDQBlf2PqDc/Yp/++DT10HUm4FjN+WKgOqXkn3ruc/8AbQ003tw2c3Mp/wCBmgDoLrw/qVx4fsj9lbfDI6EEjODyP61lP4X1CeN42tuGBU5Yd6m02VrjSdRhMjFlCzL8xzwcf1rJZ2I5dj+NbUajpVIzW6YWurEXhXR7680kKFUSW7tC26QA5U4rqdc0C5u2tbgSQAvCA58wfeHFcLp7G31zUbXPEm2defXg/rXVQ7bvw7KnV7WUOP8Adbr+tetm9NQxbktpWf3kU9jF8UaDcWNna6gJ7cm1mVmCSAnaSAa37XSza3UNwL+zBVg6gSVgXVvHd2s1u/IkQofxql4dujcaTCJf9dCTE4PXKnFb1f8AacshPrTdn6PYS92T8zt9c8PwJqDyLqNqkc371Mk9Dz+VUP7HtF+9q1v/AMBBNLcMNQ8PW8w+aSzcwtjrsPK/1rIClugJ/CvnDQ6PR4dN03UEkk1VGiYGORRGeVPFV7zR9NsrmSKTU2yrdBEenasb7PI3SNj9FNbGqWst9p1nerC+9V8iTCnqOhoAjNpo69b+Y/SKtPRl0eRprE3NxIl0u1QUAww5BrnV0+6bpbSn/gBqWLS7/crR2swYHIO3pQBbkj0a3kZHN4XUkHgCmNLomD+6vG+rCr2taHfXbQXsdnIPtC5cbejjg/0NZ3/CO6kf+XR/0oA2bG40nU9OexW0neSLM0W6QBm/vKP51k/btI7abKR/tTVLa6Fq1ncRzx2+2SNtwywFW9Y8K3X2oT28cawTjzAC4+Unqv4GgCh/aOmjppKn/elNarapaatpxuBpkL3NqoQxs5O6P+99R0rL/wCEZu+N0kCfWUVb0vSrjTb6OY3FnsHyupmByp6igCp/bkC9NKtR9cmnL4iEbBo9Ns0ZTkMEOR6GrGpeF1tromPULUQSfNEzP1U1U/sOH+LU7UfQk0Aat9rT3dmupQ2toXZttwDCDhvX6Gsz/hJ7teBFage0C1c0iCxsZ3WfVYDbSr5cqhSePUe4qG98P2NhMUk1VQG+aNhETuU9DQAy38XahbTLIhhUDqqxKMjuKt6vrN7H5d3azKLOcfKFjXKN3U8Vn/2fpS9dUc/7sBNX9LOiwxy2k97cS29xgY8nGxuzCgDN/wCEj1I9Lph9FH+FS2fiW6WQx3sr3NlJ8ssLHjHr9RUl9p2k6bcNDPPeGQH+FBgj1FQf8SMcbr5vwWgCDVNOOn3ACHzLaQb4ZezL/jVKujtrvSryzOmhbhN5zDLMwIjf/A1g3VrJZ3DwzLslQ4IoAiooooAKKKKACiiigApy9KbTl6UANooooAKKKKACljQyOqKNzMcAeuaStnwxDbpcyX12WW1tRuJQZO8/dxQBJq2oTaVHb6ZazNEIFzMYzjdIev5dKzDqt83W8mP/AAM1ek/saaRpGnvZCxyTtHOaZ/xI1bpfMPqBQBSW9vJWVBczMWO0DzDWj4guHgmhsVnkYWyAMd55Y8mr2iroyzyXgguTHZr5reY4wT0UfnWfJfaTJI0jWM7uxJJabuaAMoyuesj/APfRojV5pFjUszMQo57mtT7dpS9NMb/gUxrQ0O60+S7Mw01UW2QylmkJ5HSgDO8SSKL2O1Q5itYxEOerdz+dZPFa8mtW00ryHS4NzEkkkmk/tuMEbdOtR9VJoAy44jNIkacsxCj8a0vEUijUfs4xstkWEfgOa0tB1jztQDNZWiRwI0zssfPA4/XFUpPFFxPI8rW1pvYlifJHOaAMYewqWCJp544gpO9gvA9TWj/wk132jt1+kIq/oevXtxqkSs8aogMjbY1HABNAFDxExm1aYKrbYsRKAp6AYrNFvN2ikP0U1pS+KNRlkdvtONzE/cH+FRnxDqJ/5fJB9MCgCC2025uLiKMW8vzuF+6fWtHxBYXl1rVyyWsxUNtHyE8DipfD+sX9zrVsj3kzIp3sN3YDP9KzbjWr2eaRzdzbWYn75HegA/sPUDz9im/75qxY+HdSe8gzaSKvmLknGOtUGv7putzMf+2hq5oMss2tWavNIw8wHlj2oAu614f1G41a6kFuSjPw24Diqn/CL6j/AM84x/vSqKo3kzvdTHe2N5P3j61Bkk5JJ/GgDf0vwzerqdmWa3UCZc5nX1FJqnh+4bUrtzc2YUysRmYetZuiLu1qx/67L/Ole4FrrL3BijmEc5by5RlWwehHpQBoX/g280m6NvfXFpa3CqGMbSjOCMg/lUmi6THBq1m7anakrIDtViSaxLy6e+u5biT78jZxkkD2GewqTSm26panj/Wr/OgDQu9JtPt1wX1WBPnbjYxxz0rhPAdvbTaldrPfCCMR8HyyckORXWap8ur3Y6Ylbj8a4jw/Nt8QTxKMKBIP/HzX6Hka58ox0fJM5qnxxZ6joFrpVvrFqV1R5GLbcLAe4x3qncWOjR3Eqm/uMhyMLB71Q0mQR6paMe0q/wA6XWE8rVLteR+9b+dfnh0lv7PoQHNzfMfaJR/WtHw/JosWqwCIXrs+Y/nChfmGOa5jnsrH/gJqxp/mw3kEixSZWRT90+tAF+RtFhldPs18SpIP7xfWm/atHHC6fcN/vTD/AApNZ0u5XWLtEtpSu8kEIe/NVV0m+b/lzuP+/ZoA3fD+o6YNSES6WQJkaPLzkjkfSs59SsIpGU6NHlSR80rU2w0fUobuGVbKf5XDfcq3rXhfUF1a5EVpIULblPHfmgZzWralbWviDSr5dMt0jYNauu4kMW5BP5V13h/XI5b1rUafaxrcRtH90nJxkD8xXLeKPCupf2JPO1sVNti4B3DI2nP8s1saXouoMLS/hWIR/LMpMqjjr619FjP3+DoV+qvF/LYyjpJoD4hljLL9hs0ZTj/VZIxWHY+ILjTfEWoxLDbrHeBblB5QwGxhgPyrqtc8Lz/2pPIktssUh8xczAcHmuU8S6FLps2nX5urVtkwifbKD8rcc+2aMpaquphn9uLt6rYJ9GdboXiS7up5bQ+SizRlVCxKBuHIrOk8RX6sV3opBwcRr/hUlto4s7mOYapYq0bBhiQmrWuaFaLqDyf2pbRpOPOUYboa+flFxbTNDNPiTUe1yy/RQP6Vo6Nrl9ffaLJ7py8yZjOejjn9apf2Tp/OdZjB/wBmNjUltbaZZXEUyau3mRtuG2E9qkCmdb1A5DXkwPT72KjOq3rdbuY/8DNbmt2Oji6Fz9qnSK6HmptjyOev61neVoa9bi8b6RgUAT6PfXGoQz6a88heUb4WLnIcdvxFY7XM2SDNKD3Bc1qQS6NazJLG16zoQw5Aq7q6aMsiXYguWjuh5i7XAAPcUAc4ZHPWRz/wI1q6X/xMrGfTnY7/APXQ887h1H4im/aNGH/LlcN9ZcVJb6nptpMk0WnOJEbcpMx60AYxXnkZI4OaTA44FdNq11pw8q9j01ZIrrLn5yAj91/z61nf2tZg8aVD+LE0AP05l1bT305yPtMWZLZvX+8lY/cgjB7itiHxAtrMssOn2ySKdwbaeDWjquqKY4b63sbTyrjO/wDd52v3FAHLDFbNi39tac1kebqAF4GPVl7rTT4kmH3bWzX/ALYinQ+K763lWSFbeORTkFYRQBkbGPGDkdRija56K5PsprptW1q7mt4dQtWjSGY7ZUEa/u5O/wCB61l/8JJqP/Pxj6IKALMEMmvad9naOT7dbKWjYqf3id1+orJWwuWzi2lx/uGrq+JtUjdWW9kQqcjbgVoatql5eWseoW1zKsbfLNGp4jf/AANAGMuk3zfdtJiP9w1unR7/AFzTT5tpIl9arlXYY82Mdj7isJtVvW63cx/7aGkj1W8ilWRbmbcpzkuaAK3PcYPpRWvqVumoWv8AadsoHQXMY/gY/wAQ9jWRQAUUUUAFFFFABTl6U2nL0oAbRRRQAUUUUAH061rasf7P06008cSf66b/AHj0B+gqPQbdJL03Ewxb2o85/Q46D8TVq58ZaldTSSv9n3Ocn9wtAGEueOP0pyo7dEc/RTWofFGpdpY1/wB2JR/Sp9N1rVb+/hh+2Mqs3zbUUYXv29KAEu7Oex0K2gWGUy3R86Tah+6PuisxdNvG6Wsx+iGtPVPFV/dX0rR3kqwg7UVTxtHSqLa3qLdb6f8A77NACDRdQbpZT/8AfBrYi0LULXw7Jizl8+7kAxt5Ea//AF6xo9Qv7iRI1up2d2CgeYepq/4ivpl1AW0c8nl2qLECHPJHU/nQBXHhvUz/AMujD6kCnf8ACL6kf+WCj/ekArOaeVvvSyH6sabuOOST+NAHUWXh28tdCvmPkpNMyxLmUfd6msv/AIRm6HWW1X/tuKTWFFrZ6daDqI/Ncf7TVlYoA1W8PyLw13aA/wDXUGtTSdFS1stQuG1C1H7vy1ZWyAWNcuB7VrSf6N4YhUdbqcueP4VGB+uaAGf2LbrjOq24+gJp39k2X8WrRf8AAYzWVSUAdToVhp9vNc3H9oFxFbtlliPGRjP61mCz0dV+bUZm+kNGnsIdB1KQcNIyRf1rJyPWgDX8jRf+fq6b6RitLw8ujrqiPG927xo74IAHCmuW3Dua1vDrbZb2TP8Aq7WQ/ngUAK0miMxby7tyT/eApPtGjD/l0uT9ZRWUuWxwSfpS+W7dEb/vk0AdDo1zpbataCKwkVw4IZpc1VudQ04XUx/soH5zkmU+vpTPDlvKdatj5UmASfun0NU5LO5kmkIt5T8x/gPrQBdOsWa/d0mH/gTGprHWofttvt0y1Q+YvOCcc1mLpd43S0mP/ADVmz0e+W6hb7LKAHU/d96BmjrWveXrF6PsFn8szcmP9a8/0XWZLHxdNshty7yTZ3R5AyQeBXd65oOoSaxestq5DSEg1wNtot3D4zKvEVlkuXVVYjugNfoPDUlLCY2m+sDlq/FE7ZfFN2GXEdunIOVhGRWh4k8Q30OsXCJJGF4Yful7gH0rN/4Re/8A7kYPvIorU8QeH7m4vo5VeBVkgjJ3Sgc4x/Svz97nSZR8S6j/AM/GP91FH9KY3iLUu15IPpj/AAqf/hGph967tF+sopP+Efx11CzB/wCumaQFvxDq16t1FIl3MFmiV/lc9cc1kNq1+3/L9cH/ALaGt3UtJgm03TXfU7ZNiNGW5IODnFZv9k2XfVocf7Kk0AUW1C7cfNdTn/toa0dcmlmh0+6EsmJYAG+c/eU4NNGnaYv3tVz/ALsRNab2uk3Ph1V+3TOLWc5ZYegYdPzFAHKyhriN42ZmV1KnLE9ay/Def7LWFvvwO0R/A8V1X2fRV4N5dH/diFY2mJpNr4k1SCR7p4JFWaLgA5xg5/GvosH/ALRga1HrG0l+pm/iRs6jtutI0+4IyYwYGP05FYGqWYvtOuIAMsyHbx37frXaae2jXGm39sIbt1UCfBcA5HXFZS3WiLgixum+swryMLW9hWhUXRotrSxzujXX27S7eUjDFdrZ9Rwa6Kb/AE7w9BJ/y0tH8p/9w8qf51h6HdadY6tq1jJYyTReYLiAebjCt1HvzXW6HqlhLLLZrpqol1GU/eSE/MOR+oruzaiqOKko7PVfMmDvE5jijPvmtZtUtY2K/wBkW4KnBBZjSjXIV+7pVmP+Ak/1rxiwh/4mGgyxZzLZv5ij/Zbg1k57g5rotJ8UCC8RWsrOGGQ+XIyx87Tx602/1y7069mt1t7NPLYgEQDkdj+VAHPbv84rY01Tqel3NjhmmizNBx6feH5c0HxVf9vs6n2gWn2vjDVLW5jlWdQFPIWNRkdx0oAyFhlbpHIf+AmnLZXLdLeU/RDW7retalbXmY72QW8y+ZFgL0Pbp2rMbxBqTdb6b8GxQBoaLpt1fW8+mvbTAS/vImKH5XHb8RWauh6gzEfYps5/u0n9tahuVjfXBKnIzIa0NcuJ7hINQimlENwPmAc4WQdR/X8aAKa+HtSP/LnIPrxWto+hXzLLZXMPl2844ZnACOOjf0rnTcTN1lkP/AjTPMdursfxNAGq3hXU42ZWijQqcHdKoNH/AAjN4Mbmtl+s60t8f7U02O+BzcQ4inA7+jflWRQB0uk6TJbySW9zdWgtZ12SfvQdp7N9RVO68MtZ3DxS39qm3oWfqOxrG/D9K2VxreleWeb2zXK+skfcfUUAQ/2LDu51O1H0yav6VBY6fIy3GqQvbTDZNGqMcr6j3Fc6VpPfvQBu3uhWFjIu/Uf3cg3RMIidynoag+x6QvXUZD9ITT9LcanaHTZjiRctbOex7r9DWRIjQuY5F2MpwVPagDoNLudI0y53/a7iaJhskj8rh19KztY09LOYS2xMllN80Lnrj0PuKz9w9a09JvomRtPvCPskpyrf88n7MP60AZlFT3lnJY3Lwy/eU8Hsw7EexqCgAooooAKcvSm05elADaKKKACiirujWP2/UER+IEBklbsFHWgDYbR76Hw/BDDasz3R86Rh2X+EVnf8IzqZ/wCXbH1YVW1DVJb+9lmDuqMflUMQAvYVV81z1dj+JoA1P+EX1EdY41+sq/41q6b4fudP028uGlt0nkHkRbpQOv3iPwrl1VpGVVyWY4A+taevMsDQWCH5LVMH3c8tQADw3KqgG8sh/wBthSN4fI66jYj/ALa1lbR6Cl2jPSgDptA0OCG8a6l1K2MdqpkOzJwe361nyafYySM8msRFmJJxGx60jL/Z/h0EcSXsn47F/wDr1k0Aa/8AZulDrq+f92BqnsdL0i5u4YV1KaRncAKtufxrC5rW8Pr5LXd72tYCef7x4H86AL2tNod3qU8hvLpudoVYhwBxVL/iRL1N9J/uhRWP15PPejigDX87QlH/AB73zf8AAlFaWvXOlW72tm9jO4t4VCgTYxnk54681z2nW/2u+t4QMl3A/WpNYuhdardPkH5yB9BxQBaW/wBJXO3S2P8AvTn/AAo/tWwHTR4v+BStWTuHY/rR94dCfpQB08urW1voMW3S7bE0zNtJY9BjNZv9vL/Dpdkv/ACf607V43hsdLhCtxEXPynqTWYtvK3SKQ/8BNAGmviSRfu2Vmv0hFaem+Ibr+z9TlCW8eyNQNsQHU9DXN/YrhgcW8p/4Aa2bPT7pfDeon7NLl5Y0HyHJ6mgCv8A8JRf9mhX/diX/CkPijUzx9px9EH+FV10PUW6WU3/AHzUi+HdTbpZyfpQBpaDr2oXGqRo905Ta5I4H8JrK/tzUOR9sm64+9Wz4d8N6lHqQd7Yoojf7zAfwms//hFdR5zHGo/2pVFAFJtWvW63k3/fZpYdQummj3XMp+YdXNXP+EXu15aW1X6zrSp4ckWRS15ZLgjOZhQMj8STy/21dgSyAbv7xrgJmP8Awlgd3PFwoGT6pXqGvaLHJqk8h1KzjDYO0uc9K881zT4YfFUca30LRrJA7SLkjnIr77hNOpPEQXWDOStpZm6ctwxP51r67h7XSZMYza4z9GIpDpemqWzrMZ57QtWjfWemSaPppbUJNsZdN6wnnnOMV8HJas6+hzFLWoLfRh1vrpvpDil26Gpx5l63vtUUhB/rvDPr5Nxz9CP/AK1ZVdTpv9jSaXqMCx3bjaspywBOD/8AXrNabRFHy2t2xPrKKQzIrW0HM1vqNr182DcM+qnP+NJ9s0gDjT5j/vTf/Wq7omq6dBqkBTTgNx2bnkJwDxQI5ztisrVGFprWmXR6SFrd2z68j9a664vrS1upYjpcOY3K5LGsXxZqEdxocxhsII5IGWdWUHPynOK97J5L60qb2mnH7yJ7XNHw/crb6tCrnCSExPn0YYqreQm1vJoW4aNyv5Gr1v4m3wxzRWNoNyhgfLz71q694gnW4guY7e1K3MSybvKB+bow/MV49WDhNxa2KjqjgNUzZ6tp12OFYm3k/Hlf1rbt5HgmjmVWLRsGGAe1J4i1a71LR54tkIZcSJtiAIZTkVZ0/wAXX15YwTpJGvmIDxEvXuK9zGf7RgaNfrG8X+hnHSTRa8QWbDUDNFGxjuFEy4U8Z6j881nrZzt0hkP/AAE1vt4gv7vQRILkiW2fa2APunpWT/wkGpf8/kn4V86akI028YZFrMf+AGtnVNJvdQ0+xvVtZPN2+RMNvJZRwfyrKbWtQbj7bMPo5q/ouoXN99pspLmV2mQmMs54cc8UAU18P6k3Szk/Knjw3qR/5dmH1YCqUlzcZIaaQkcH5zUfmuers31Y0AdMvh+9u9EaGVEWe2bdHucZKHqPwrNPhm7X7z26/WZaqaVqB0+/jmPzoDtdT3U8EUur2I0+/liBymdyN6qeQaALX/CNzKMtd2a/WYVo6Po6yQz2E9/aeXON0e2TJEg6H+lcvinRsYnDodrKcg0Aaj6FHFIySalaoynBXnIpP7KsU4fV4c/7MbGl1qMX0MGpIP8AXfJMB2kH+PWsnFAHR6Sul6fdfvdV823kXy5VWBuVP9aZfaNpWn3Bjl1GYA/Mu2AkFT0OawK2ImOraOYD81zZjdHzy0fdfwNACeToS/8AL3eP9IQKltbrRbG5jniOoM6HIwFA+nWsP69aKAOl1SPRMLex2129vcEsAsgARu61ntd6Mv3dPuX/AN6f/wCtTdHuom32N0cW1xwG/wCeb9mFUby1eyuZIJRtdDg0AaH9o6XGwZdLbIOcmc/4Vq3Wo2erWsmoppcD3MeBPGXbpjhx6+9cpkVa07UG066WZMMvR07Mp6igC3/bVv8Aw6TaD67jS/2+F+7ptkv/AGzP+NRaxYJayRz25LWlwN8Tdfqp9xWeFJ6An8KAOgfUP+EqhW2kjjivYV/0cxrjeo6p9fSufYFWIYbWHBB7VJD50ciyRrIHU5DKDkVsalavq1k2oxwOk8eBcpsIB/2x9e9AGHRR70UAFOXpTacvSgBtFFFAB+ldJZ6S6eHMpPBDNetyssm0iMf4msTS7E6lfRW4OAxyzeijkn8qfrF4t9fO6cRLiOMeijgUAWv+EeI+9qFmP+2maT+xIVPzapaj6EmsnApaAOm0TSLK3u2upNShkhtl3ttQ9eg/WqElnYTSPK+qqWYkn92aS8xp3h+3t+k943nv6hBworIoA1PsulDrqEh/3YqfHZ6TM6xrc3Lu52riMdT0rJrV8Oxqt3JeOP3drGZf+Bfw/rQBoa62j/ao7YvdEWqCHCAbcjrj8az9+iL/AMsrxvxFZbyNM7O3LMSxP1pKANT7RowPFpdN9XFajXmmWPh9QNPkIvJN2DLzhf8A69cvgkgDqTgVq+IGEdxb2gPy28Kp/wAC6mgBV1TTl6aUv4ymj+2LNT8ukwf8Ccmsnj1H50mR60AdRoGrxG8eVdPt4hbxNLuAJ6DgVnHxGxbcLCzUk5/1X/16TT2W30HUJScNIyxA/qayqANX/hJLj+G3tF+kIpf+EmvTgKIF57QrWSMt0BP4Grmk2j3WqWkflsQ0qg/KfWgDb8QeItQt9SMEc/lrDGqY2D0+lZZ8Taof+XyQfQAVHq0c91ql3IIZW3SNzsPrUC6bdt0tpT/wA0AWG8Q6m3W/nH0bFaE2qXh8LKz3czPJd8HeegWstdHvm6Wkx/4DWveaPfN4f02JLVyS8jsMdOcUAYbahdN1uZj/AMDNRtPM3WWRv+BmtAeGtRb/AJYYPuwFOHhfUMZKRr9ZBQAvhvLX8pLFiLeTqSf4ax+K6rQfD91BczNI8KA27j/WDuKzP+EbmVfmurQf9tgaAMjaPQCnrhT0rV/4R8AfNqNmv/A6T+xbYfe1W298ZNAxviVf+JsxBHKIf0rgPEhEOrbs4LLCxPph8V6lrmnWUl8rvqccZMSZGwnPyjmvO/G1nZwXxZbwTxm2XJEZwf3gyPyr9B4La+vzjLZxZyYj4Lmq+qWKsc3luOccyCr1xr2mf8IzErX8AkS5Y7d4PBUc0sfhnwqFUkAnH8NsK2bLSfDcfh+9WOJyiSqxb7OgI4xjntXiVllUJte89TRc5xq+JNJ6f2hCT7Gkm8TaZEB/pQYH+6pP9K6RbXw3H0tbhj7IgqZZtCjUYsrhh7uo/pUe0ylPSEn8xrnMTQfGWlR3M6NNKRNA8eFhY89R2rNk8TWkZwIrpx6rA1d1ompaRDqtqyac6nzAu5peOeP61DfXmnWl9cQNpKu0bsvzTN2NR9YyyL92i/vHafc4tfEsEjYW0vGPb9yRSr4keF1ZdLvSVOQdoFdZ/bViv3dGt/8AgUjGkOvRD7uk2a/UMf61UcZl8XdYf8Rcku5iaxrtzd30lwujXcQmAkCyFRnI69azJdTvZo2T+x5SrKVP7xehFehahrjtpOn3K2doThoj+7ztweP0NZn/AAklwOkFqv8A2wWrpZlhaNRVIYdXTvuw5ZNWucJoN9qP9mpBFYiR4GMTbpMdO1dA114hvNGT/iV2/l2smNxlOfm5xil0vXr2x8RapHG8ca3IW4CiJcZxg4GPaut0XxFf3clzayXGBJESgWNR8w5HavWzTHUKOJlKGHi1JKS+ZEIu25wph16T7tnbp2w24/0pvhG0vW06eGS3ZmhuHT92hIHNdN/wk2q7h/p0gI9AB/SsLwzrmonT5HF5Mpe4kZsNjJ3HmueWMWIyqtH2ajZrYfLyzWp1Xh3S7uWee0ktJhHdRGP7h+91X9R+tZ//AAj2pqSpspcqcH5aYutXyypJ9rmJUhvvmrXiGab7cJ1mkEVyglXDnAz1H518YbkS+GtUb/lzcfUiprfQdUtZ45liRHjYMN0ij+tZLSyMcmRifdjTck9W/OgDptb8L3Dag00TW6wzqJFzKBjPUfnms8+G51+9dWi/WUU6ELqXh+RDzPZPvX1MbdR+BrG96ANb/hHxg79Rs1+kma1LjSYL7R4i2p2xntPlZlyf3Z6fka5WtHQ7xLO+USjNvMPKkHsaAJTpNmOurQ/8BRqb/Z+mr11TP+7CaqahavY3k0D9Y2wD6jsar80AdLpEek7Z7GS+kkjugFGI8BXHQ1QmtdKtpnilmuvMQ4YCMduKyQSORwRWvqwTULGDUl++xEU/+8BwfxFADP8AiSL/AM/jfgoqxZajo+n3UdxHBeM6HuyjPrWHSUAdNqq6PC8dyljM9vcjzEIl4B7j8Kz/AO0NLU8aWzf70xpdHcX1vNpkh4kO+An+GQdvxrJZWjdkYbWU4I9KANY6tYZ40mPHvIa1G1aHWNOe4XToDdWygFTk5j7H3Irlansb59Puo505K9VPRgeooAu/29txs06zX6oTS/8ACRSjpaWa/wDbEGodZs47eZJ7fm0uB5kf+z6qfpWfuHrQB0+l+Kppz9iuRAkMh/dssS4jfsf6VRu9f1SzuHgdkjdDj5Y1H49Kxsg1tgHxBpxwCdQtV5GOZYx/UUAVz4o1Q/8AL2w/3QB/Sn2/ijUoZgzXTyp0aNj8rL3BrM8l/wDnm/8A3yactrO3SCQj/cNAF7WLCKEJd2hL2U33c9Ubup+lZtbWjrPH5ltcWkz2c/DDYTtPZhVDVtLn0e8a3nUqwG5WP8SnoaAKlOXpTacvSgBtFFTWdq99dRwR8tI20f40Abui6a66HcXaSwxT3B8mPzXCnZ/E39Kp/wDCOuB819ZKf+utQa9dJcXoiiGILceUg+nU/nWfx6YoA1f7BRfvarZD6MTU1j4dguruKP8AtW3bJyyqrZ2jk9vSsT1HtWvpv/Ev0m7vukkn+jw/j94j8KALOrxWGoahLL/aqKmQqKsTHao4AqmbHSl66lI3+7Cay16Yo6dqANRbbRhybu7Yf7MQ/wAa1T/YtjoKqWvmW8k3Z2qDtX8ema5mGJp5kjUfM7BQPqa0fEUii/FvGQYrZBEuPUDn9aAHeboS9Ib5/wDgail+16IvSxu2P+1MP8KyKKAOj0aXS7rUYlXSmIU7yXmOABz6VXvNcsLm6mm/siNmdySTK3NQ6SwtNM1G7Oc7RBGfduv6VkjtQBrf2zbDhdIsx7tuP9aX+3wv3NOsl/7Zk/1rJoC7iB3PAoA6i916a10mwUW1oDMWmZfJGBzgH9KzD4mvM5CW6/7sK0eJiE1BLdDlbeJIvxxz+tZX40Aa3/CUah2lVf8AdjUf0rR8O69f3GqbpLhjHHE8hGAOi8dq5fI9a1tFcw2OqzjoIREPqx/+tQBC3iDUnyftspz70xtav263kx/4GapD0/pTxE7dEY/RTQBM2pXbZzdTY/3zWjrdxKtppSebID9n3N8x5JJrKFrO3AgkP/ADW34j027a8gRLWZhHbxrwh/u0AYXmyHq7H/gRpuSepNXV0PUWxixn/wC+DUg8O6m3Sxmx9MUAS+H8/wCnt6WzVjhBtHFdVoPh3UUg1IvbFT9nIG5gO9Zf/CM6hxmONf8AelX/ABoAyqWtX/hG7ro01qn+9MtH/COsvDahYr/23FAw8Q/8fUB9beP+Ved+OiVmt8ZAMRB/76Fer63o8Mk1tu1O0T/R0HzMeeO3FecfEqxhtYbExX0N0WZlPlA8Dg96+74Mny5rHzT/ACObEfwzdj5jUj+6P5Vr6SC+l6tH0/dK/wCTf/XpsOnacsUe7VRnaMhYSe1ami2mlp9uSO+kmZ7dgVWHHTBzXxuI/jT9WdC2Ry24+tH48VrC30QAf6VeN9Ih/jS/8SRf+fx/wUVzAZUbmORGB5VgR+danidQutTv/DMFlH4gGnCbRF6Wt03+9IK0tYvNLaOwnawkkDQBVzL0wcUAcvRWq2oaXn5dKH/ApjSf2rZLwukwge7saBi2zfaPDd3HjJglWVfoeD/Ssrj1ArqNB1aGa6ntVsLePz4XAwCckcgfpWV/bm37thaKf+uf/wBencDldU/0fVtNusHaxaB8e4yK39NufseoW8pzhHGfpnmqninVJ7vRJtsNujwMs6lIwDlTmtO38V3l1bxTL5AWRQw2xL6fSvocZ++wNCv1V4v5aoyjpJoj1y0ay1C7jVThSxXA7YyKwfC8Mj6LbssTncWY4U9ya7TxF4hvf7Hgvo5QBLA6SfIv3lGPT0xXOeG9cv7fQbFIrlkTywQoAqYLlyqT7zX5A/jJ1srhulvIf+AGthtNu77w/Gfs8hktZNv3Tkq3/wBeqDa/qLcG8lA9mxV7QdWurq8a1lu5CLhCgJY/exkfrXz5oUBoeoH/AJc5f++aevh3Uj/y6OPriqsl5dq7RyXE25Tgguaj+0St96aQ/VjQB0Gh6Lf2WoI0sAWJx5cgZwMqRiqtx4Tvre4kiPkgKxALSqOO1ZHmN/ebP1NausD+0NPs9QABbHky/wC8On5igA/4Rmdfv3Noh95hQfDuPvalYr/20rHwPSloA6nUtJi1DT7W4bU7UywDyZmXJGB90/0/Csr+x7Nfvaxbkf7MbH+lJoM8a3LW05xb3K+W3sex/OqFzbva3EkMgw6MVNAGgNO01eW1XP8AuwmtHSF0eFpLWW9mlhuR5ZURYAbPytmuaoyfWgDauLHR7K6khllvvMjO1gEUf1pv/EhX+C/f67RRqQ/tTTIdQHM8f7q4P0Hyt+VY9AG0lxokTBks70spyD5wHNaGqXWk3luuqLpbuXOyVfO+6478DvXK1o6LeLbzSW8//Hpcjy5B6ejfUGgCVtU00fd0df8AgU7Gk/ti0X7mkWuP9pmNUb6zexvJbd+sZxn1HY/lUFAHUaTr8V4psJLGzhSQ7om2kgSdup6HpVCfXJ7WV4jY2ccinawMPIIrGUlcEdR0ravsa1py3qj/AEuEBLjHVh2f+hoAiPiS6/hjtk/3YFp0PizUraRXjlVGX+7Go+vasel/HFAHS6prV8YYb20uGS2k4aNQP3T9xWWfEWpNz9tl/Ok0nUI7V2guTmyn+WUenow9xUGp2LabdtC5DD7yOvR1PQigB7a1ft1vJj/wMir9nc/25b/YLuQtcrk208h/ND7GsTr0pV3KwIyCOcjrQASRvC7JIpR1OCp9aVelbNzC2vWJukiY30A/fqFP7xf7/wBfWsZegoAbW/4e065+w3eoQW7zuP3EWwfxHqfwFYUMT3EiRxjLuQqj3NamuXPkTRWVvIVitU2EoxG5/wCImgBn/CNaoefscmf9rANPXwtqJGWiRP8AekUf1rL8x+7sfqxprMT1OaANb/hF7zoXtw3p5oya09a0No0tbJLy0VLaMbsygZc8sayvD8SrdPeSj9zaoZCD0Lfwj86zZpGmmaVzmR2LMfUmgDT/ALBUfe1KzX/tpmg6Jbr97VrX8Mmsr8KSgDqPD+l2MF1JeSalHJFaoZDtjP3jwv61nNZ6bJIzvqbFmJZsRHvzRJmx8PRKeJLyTef9xen61k0Aan2XSQeb6dvpFR5eirnM90//AAACsqpLeFrm4iiUZLsF/M0AdLf/ANj2ei2NsY7p/NJuTggHB4GazfP0Uf8ALrdMfeQCovEE6zatKqD93CBCv0UYrOoA1ftmkjpYSn/elq9ot1p9zqltGumKPn3bmkJ4HP8ASuc+nFaugjyftt1nAhhOD7txQBNe6/a3N5cSnSoCZHJyzH1qIa5Ev3dMtB+BP9ayB+tFAGv/AMJC4Py2dov/AGyzWnH4guofDc0ix26GS4VcLCMEAZrlq1dQHk6HpseeXLysPqcCgBT4ovsDaYVPtEv+FMbxNqTdLjb/ALqgf0rMooA04/EOpySIhvZcMwGAcdTVzxJrN9/bFwq3kwCkLw59KyNNTzNRtU9ZV/mKl1qQS6tdtn/loR+VADG1S8k+9dzH/tof8aia7nf700h/4GahyPWl60Aa+jO32LVSWbiAdz61j/e681r6Srf2XqxCscxKOn+1WYtvK33YnP8AwE0AR4A7UYHJxVgafdN0tpj/AMANSro9+3SzmI/3DQBa13mHTT62y1wXjwBLG2kJ6SEfmK9L1jRb+az0vFnISLfBGOnNcD8TNCvrbw2LiS3ZI45VyxI78V9nwilLOKMW97r8DCv/AA2a8LBokPqoP6VseGf+Qsi9mjdPzU1W0/w9fSWNq/lqA0SkEyAdq1dF0W4s9Wt5JZbeNFb5i0o4FfLYqPLXmvNm0fhRzzLtYj0OKK2JvDknnS/6bZ43nH74dM0z+wAPvajaD6PmuUZlVqXIM3h6ycc+VK8f5807+xrVcBtWtx9ATVxYdNTSZbR9VQs0okUrGSBxzQBzlLWp9i0rvqbt9ITR5Ojrwbu4b/dioAq6XcG01K1mBxtkBP070urW/wBl1S6hxja5x9CeKtD+xFwQ942P9lRVjUNS0fULppntrvcVVT84HQYzQMwWQSq0bdGBUj1zWV4ZkZdLFu5zJayNCePQ8fpXVi50dSMWNw3+9MKx7G+0+z8T6mh0zMNyqTxI0pGDjDfqK+iwX7/A16HVWkvluZS3TLt5IJvBurITk26+cAfQjaf6VlaTGI9LtFX7vlLj8q1PEGv21noOpCHTYoTNCYi28twTU1rq9tDZ28a6TaHbGo3HcSeOvWifu5RBd5v8kH22Z+5fWnwzNDKkiHDKwYEeorS/t3aPksLJf+2ZP9aX/hI7hR8sFqn0hFfOmgniKNWvhdRj93dKJhgdz94fnWaI3bojH6Ka1W8WamyKnmx7F4VPJXC/Tim/8JVqvQXe0f7Maj+lAGctrM3SKQ/8BNbWhWFzdQXenNbzYuE3RkocB15H9fzqm3iTVW4N9L+BA/pUb69qUnW+uPwkIoARdD1BullP/wB8GpB4b1M/8uUo+oxVZtSvJM7ruZvrIaia4nfrNIfqxoA0P+EX1M/8uxU+7Af1rU1jQbm+W2ugYUmddsytKudw4z+NcxvkPVyfxpuD170AbH/CNT/xXNqo95hSf8I8V+9qFmP+2lZG00bfyoA6XSbG3sppUuNUtTbTIUkVSSfYjjtVE6TZqfm1eE/RCayMGjmgDX/s7TV66pn/AHYjR9j0lQc38zfSKsjml59TQB0V7eaLeW9urvdvNCuwyBQNw7VS3aL2W8b/AL5FZPNHNAGws2iD/l2um+sgFWbHW9M02YvFYSvuUqyyS8EHtXPc0c0AbLappqsSmkr7ZlPFJ/bFmv3dJg/4ExNZAz3paANY65Ev3NMtFHpgn+tPm8VXEscafZrTbGNqAxZwPSsaigDV/wCEluh0itl+kIobxNf9A8aj/ZiX/CsqigDTbxLqbKy/amUMCp2gDIPbgVnDp0ptOXpQBp6Iq2sNzqMh+WBcR+8h4H5Vk792STlmOSTWrZ+IHtdPFo1tBPGrlx5i5OTT/wDhJJF+7Z2i/wDbIGgDHpyqWPAJ/CtT/hJLnqI7dfpCtI3iS+b/AJaIv+7GooAluIZLHQYYFjbzbtvNfg/dHCistbO4bJEEh/4Caut4k1N9pN22VGBwOB6VGdc1Bjn7ZL+BxQBEumXbdLWY/wDADU0Oh6hNIq/ZJAGIGSuMVGdYv263k/8A32ajbULt/vXUxH++aANzXtG1C4vvLhtZGgt1ESHtwKoL4b1E9bfb/vMBWebqdus0h+rmmF3bq7H8TQBpjwzfNwRCv+9MtXtH0RrO/Sa5urWNYwSuZhy2OK5wjPUk0bec9aANiTQ2kkeSXULMFzk/vc803+xbYfe1a0X6ZP8ASsnFGKANb+ytPX72sRf8BjY1dhGj2+l3Fr/abNJM6kssBxtHaucooA1/suir/wAxC5b/AHYR/jTfL0Mf8t7x/wDgCj+tZVGBQBqs+iDgR3r++5RVq91bR7pbdfsFxiGMRjMwGffpWBjFLQBrjUtJUcaSx/3rj/61J/bGnr93SIsf7UrGsiigDaj8RQ28iyQaXaxyKcq2ScGmv4kZ2LGwstzHJPlk/wBax6KANf8A4SSbtbWaf7sApG8TXh6eQn+7Av8AhWTRQBqHxPqP8Nzs4wQigA01vEeon/l8f8MCs2igC+2vag3W9m/76qNtWu25N1KT/vmqlFAEzXs7dZ5D9XJrm/H0jyeF7jc7EB1PJ963sVi+NAD4Yvc/3V/nX1fC0vZ5vh5eZjW+Bmpp7t/Z9t8x/wBUvf2qc8nmq2m/8g+0/wCuS/yqzXh4z/eKnqzSPwoTA9KUcUUVwFBSUtFACYFLRRQAUUUUAFZOr5t9S0y6zhd5hf6N0/Wtas7xBCZtHnI+9FiUfVTmveyWpGOKVOe0k196InqhvijH9jzKWxuZF/NhWgq4VR6ACsfXplvtIs9p/wBdNFj8wa263x8XRwVKk+8vzJjrJsKKKK+aNQooooAKKKKACiiigAooooAKKKKACiiigAooooAKKKKACiiigAooooAKKKKACiiigApy9KbTl6UANooooAKKKKACiiigAooooAKKKKACiiigAooooAKKKKACiiigAooooAKKKKACiiigAooooAKKKKACiiigArM8TxiXw/fg/wDPIn8q06pa5H52i3yjqYW/lXuZLP2eY0H/AHl+ZFTWDDRW8zRrFs5JhX+VXazvDuf7B08nvCp/StGufMoqOMqpfzP8xx+FBRRRXmFBRRSUALRRRS3AKKKKdgCkaMSq0bfdcFT+PFLR9Oa2oylSqRmujuJ6qxykbPJp+l2x5lt70xN9Fz/SurrlbqF4fGVvEv8Aq5m+0Ads7cH+ldVX2vFEVBYe20o833sxpdQooor4M3CiiigAooooAKKKKACiiigAooooAKKKKACiiigAooooAKKKKACiiigAooooAKKKKACnL0ptOXpQA2il20baAEopdtG2gBKKXbRtoASil20baAEopdtG2gBKKXbRtoASil20baAEopdtG2gBKKXbRtoASil20baAEopdtG2gBKKXbRtoASil20baAEopdtG2gBKKXbRtoASq+pKX027UDJMTAD8DVnbRtFdeFrfV68KtvhaYmrqxz2j+ILG20OxjeVt8cKqyhCSCOoqyPFVgxwDOT7Qt/hWv5argBQAfQUu0CverYzLa9SVWVB3eu5lyzitzIbxHCvS1vX91gOKVdeMgPl6deP8AWPFa/O3O4/nTTk9653i8ujth/wAR2l3Mj+3LokBdGuj7lgKV9T1M4KaO2P8AanUVrhBtpu3vmr/tDCRd44ZfexWk+plJfaxJnGlxRn/ppcf4Cj7Trn/PjZj/ALbn/CtUrQF56ml/alJfDh4hyPqzLb+25OV+wxeoO5qI4dbYEPdWaehWIn+tamPc0ban+1pW92lBfIfs/Mx20/Wj11aIf7tuP8aVtJ1KRRu1mRT/ANM4VFa+KMe9N51iOkYr5IXs/MyrTQXiv47y5v5ruWJSqB1AAz16VrUm33pyrxXnYzHV8dJSru9lZFxio7CUUu2jbXnFiUUu2jbQAlFLto20AJRS7aNtACUUu2jbQAlFLto20AJRS7aNtACUUu2jbQAlFLto20AJRS7aNtACUUu2jbQAlFLto20AJRS7aNtACU5elJtpaAP/2Q==;" vertex="1" parent="1">
          <mxGeometry x="553.06" y="-119.53" width="190" height="86.75" as="geometry" />
        </mxCell>
        <mxCell id="zltHlrUEb8MR5FjfzfhL-12" value="" style="shape=image;verticalLabelPosition=bottom;labelBackgroundColor=default;verticalAlign=top;aspect=fixed;imageAspect=0;image=data:image/png,iVBORw0KGgoAAAANSUhEUgAAAPAAAACQCAIAAAC5w3GfAAAnkklEQVR4nOy9CXAb153n/xrdOBoXQRwECZ4iJR6mDsuyDtqR5fxLGsYZyx6n8o/Hs7Y1ydhbym5cW5VMbVLxbmYqtZ6NZ5LZ2bJn4tk4lcTJrjeexI6v8ciSLSuyLFnWYcmkRFEkxQsgQQK8cB+N3mq8ZnejcXU3GgcRfIqlQkNAo4H+9uvf9X4PI0kS1KhRLSjKfQA1ashJTdA1qoqaoGtUFTVB16gqaoKuUVXUBF2jqqgJukZVURN0jaqiJugaVUVN0DWqipqga1QVNUHXqCpqgq5RVdQEXaOqqAm6RlVRE3SNqqIm6BpVRU3QNaqKmqBrVBU1QdeoKmqCrlFV1ARdo6rAyn0ANUrErCvE3Wxx4NzNs5+GR6dizOahAdzRsCG1sSEPuoZYZl2hp/5mlvvMNx+17N9nZjZHp2JnR+LM5qGB0h6ffNRMjhpVRU3QNaqKmslR/cy6QremQ9n+F1rPXHtjQ1MTdPXDs54H92i5mzw1HxnE2x3YBvUIa4L+Q+To4805/ndDq7lmQ9eoNmqCrlFVbOCbSw2B8IxmHocGcG7UeUPbGwAApNbwvIrJkR1kUoM8j3Dgdk1pj1FmZLgcz1zwXR+PMpv3HTA0N6oK320NyRx9dpm76Z7xwAfPfbclRdPVEqrjIs/95YOrEeZxX5eqJuga5WJjG0w1ysIvXvdxR/fvfdVQOZZ3Lcrxh4hrIf6LY1lzhxuaSrmwJOD2krOeBLPZYlXYLUhZj6j8uBbi3/+ZT+y7BnqxjVsvykOG73D3nYaOFrUcB5OVhWX+Mw31YNaTePMTVtCHdwO7Bc349hd/7eVa+V9/yHD3nYZiHSuHGWeAu9narCvBh3KJRWJLC6vw8eAeLa8Gmkt1qFm2EbrYXuAvT6XEFrvt4PCAiMGYq+ZS8hffGeVuvvvLnWU5jD8oquS65CLLuPj8i+NvnFpjNn/6g+7Sj68VyNlPw9SA0q7sblfCZyotbl2Fgn79nXmeFgW+keu8z3PmIzH4QymBWz2+AX49Jk3Y383aG44G7IVv1zvn2ewBfJz3TstzJQd6sZqgs+JaiE+5WMXkLftqsSoO707ZFPhBS744lOablzLb3Bnxh+LXptixv06H9bRW0K8HgUrN8QJexA0AEApECYKAj3/1jKPIB1h0KuiUvPFv7mPng8zmX/55o6OBdt267SmvbLNRBrTdgmTzAnk8+5T1ud+xZvTsquJ/vOQdPKCxaNXeYHHdWS4zzkBR7RbXQvz42ZQRtGpiF8LZGN8WuoBvnqVdw+lFcnqRkvWOzYLe3tyosjUqmc0gADemVweLdbAsD37e9M5Z9hK9NRUSKGjXQsogKlyUvNG3uz1eE3TlMurmPUHu2Jwh1rGtT1/4Z+E6TSTEmphvHfc+9rDo27FCgSrVrFWKKIQaRbxYcm4romS4FuIDvaxg4pFIV1PFJeZECzp3e4dKYMsWi8ZgYjZdXtCaa4oGy5EHDUcepB+fOhP9n/+X9QsVShW0m5lnjFoR9nclc892FUkkcr8m3fKOhCLO8bkKjP+IEzSvvcPgHm3u+TxlYWIy8OPX2CiHzoDv3Z7ZUN7WBpqyJBcVqFJrZM8Tiin1eCV6gWKBFy03vgEpUibh7KdhbmCkBOWpFXSG7j9ovv8g2/pE8tj/2bVV3wprueoM1H4Obk0R7p/us1ZfSaCjAfveV/NkQHmVpf41Sm33blc/8bBF7MepNCqtXjPjBjPuQNKgQithPmIFCTp9fvJrz2/hbvJE2ZTlFCAKFEX59kCa+8iqGYYLeZOfg74QAIVWhhz+I9vWXnZ82tQm9BLlmqq58SQT29Dc//gaPe4ajOqAP2Y3KQofDnnuKUM4EDY1UJb9P/2WTq2r1MonHyh/2V1lCTo3AmMaeYFBaKcnshqgzxaqAXY7ACPy7J+hxYFzG2Lcmg4JvO0ceVBQqYlnFbz0XvTSRQ/v+Qfub7w2EdpkQYQLem6Rb0Y32SiH7/jZUPo8gEgo4p1fbmizC9x5KREtaO4ENW7yqWK5qy/lO/LyI9lQazV//kfsKC65+urZn84pMPZ2sakNz6FpgdG680O0tzrrBR5vhoymWE4Px08PL8LHuE6lN1Jf9iv7lXu2KtNfPDE0WfgnFg9xgm5x4GX3AmGY5V9P0YEthQKF02SyFdBtaZUSjkBRRbsDm5ikpT8+EUkQuAR3XoGl2D85BmnnfPTbz3k4B4Ae/VJd+hA7t5h45TQr4liUEHIYMOdydiQeCUUov0KPJeLUkNzSavD5IqsrfB9RGtdG/S02+ni+9xOfGhc6Cjz/4jh8wK1ZkFbOVREmx8UbxK15MhrMEzxyzkffOeV77zLt8CXiiWg4qtFr/r+DrddWwLUT9Mvkci4nJgN/+zM29P2fv2oXK+hsBmhpODsS//jGUiwa+6uvGRWY8uxIfNWz6p1PcQpv2+kwGLTSBH1vauzo5OXgmx8Efv0mbWJpDXhju1CbhKfjQqgIQQMAhmbIYCDR3GECAOzapNjcjGR0oT64Gkl3+HhIVvCRQfqN0Ft/4SUnNy0iAV4iWjLc+sGZeSLvWZuYCDjnYyiqUGtVKMbmPkKBsNiPZqrqGGbHqN/kj+829LRTTjPTkzfsW3njVPlnwZRa0DkCk1qdRqujHm/fqtjVU1Da4vS5peFR9lPuP2jmqpybH4H0tOYfeoXn+eRidCqWiMeu3Qy9+u48EWdNi+ZNNq2B/Tq2JmM0QvhXw0yN0dA1H66TXqMCYyYjE/GI3/f8b9ixU2/UeueXiDih0eHvXoi8eyEyuEe7f1/W/ax66ACIRqeJhmMarfpvX/TwIleyUykjtLwMj4a4dU793awrVuL8CJ48l9Lee3YkfnYEAKBU46pkGJHGeWuR+7Ltd/UAIMiSzsid3arD6+7H0Ij//U9X4QHPTvBfGdVk+CLO+eiUKzZ8I/D7YWCyGlEMDQXCQV8I/sHXNHc1hQJhjVboNabSqIg4QcSJB74+8k//tV3ULVfoqeW1ZM3trRdCMBC+MaGwG+jhMPenDO7RKpQZPPHKod5WxwxUR/8ETxBZxd3cqPrVMw5pkwLzAnMur76xxLMK1lYj751f3dkOErFYfzdOJhJiLz/GkVVp8eQFrE43bMLJZ5jJYOk8fdTxdz9nHWKlWkXEJVovQgV9azr097/yMpvffNQio6B39aBMNfNrb6/9y9vBf3mb/SDGSmtuVD37lJX7RsnZvtLM9oMzO/7qR3Sc65kXKIfswN12GHrjBisAAD/8eq6GXXlhbOX9/dQ5vW2LBsWwpJmkRpXo//o/czfn41cu832v2QnqnM6Mq3J4C4wlA7Wu1MifYe3aZFSq5fELK8XkEDhhO4eCYX3CO8lw3olLmScRzjgDr78zn+5WP33UAXXGpb8b7+/GR27RkQoFpnQtiKvGzJHXGHfmCemI4vFDmr3b67jPvHwscnGCWDdFYgDUbeuPX7nMT8HwQJVKlSbljqfSKFEQdU2tJMNKBDSgmf/t78Y/vCHI0STiBJncw6kz7vSfWkZKLeiB2zXylqcwobEpV+yff+dnhpN0eNME87J/n/nD86vvX6Lf8v6loEan+dlfNxZ8yOIY6MVCDgMAhr5OLDnMu7j/29erV5P+aRc67fIDALwLYWmJgjqL4dIsJWUNbTmwA4dWo4KCFgW0g1EMjYajoUBYkYxNJeLEMy+4qkrQMsKrs0n+iFgokEHQSDL5IiHYScTC3MCtpTGlLvkvfxzkbhZoM0AyzqHyrFJOmzspqgNfoEZiz6IfS1BWZoMVA4CYXCB6+20AgGNvLR19XPSH4lqltdEIH8/P8rVrrMtlW3Kj0R9cjRDxhFqLq7W4Uq0MB8LRSBQWxujq8hSpf/PRlNKcjlZqtwiiEGvZChX0pjac+5HC62xkBBoMPF12bu1If6VGl3ITKH3ETS541wwAoGcLddncuuGcvsX+Dn29eijoHETiSEeXaWbKx40AFk5qmZ73g6sRpTqPm37qjLuzQ8/1W1ocssUYhApaxo/MTY4838SkX8aUUsl4+qiDayc8/+L4N57ouvcO5b13sCceVgIVTleHxrlI+Q9xEBvoic0tYZOL1N1Jp0URtdbuiM1M+XYMdPrWojC9D9+F6/OfWTRZkYJiKEEQ9+3VJhLEtl4Dd6XDjCQyXTzPvOASPhVfLBVnchR42TB3wH87txpY8cPH/+0fPX98d4Y4xtNHHbyhohh0dvDvttDudzRgKwFyyUdS1+o85SOaDYhJV1DNqrXZ9ssTZNJd0zh0EUMdojbxDSGdUQsQLBJJqNS5slew6iMcCId9JIqh0BeMJU2Idz4Ohv2hBwYbch9MgiCiYTapnsO9kZGKE3QhfO2LOsbjVGpUZ0dYYxRTB3/6gxR/ToiOOzv0DxwwMpvb+sRdbLDS+tpoSkj1xKXYkNc30IsdedCw5COHOeGO/maFZEG/f3zaZLf4wgVF5Xd1om27Df/9n6cXplPmb6KYoMRtX5fq+Cd+ZhPaNnDUSNqK/kKOTSASBc2bwyP77A/hMxe//+/rT1+hA7quFfDysdCBncqMwTUJI3Frsw5TaZik43ufrnVtMjIHk9cLhCmSSEjOEiUVRg3APZu1OnXi+ggtEfigPa6rswgV9O4uRYKIIgoFilFv2dxCmR+tjSgAOHdYzcHEpP/t91kPEjcaDw3g/+EhDS8OU+KmfhIFzS10lL1BSfrC1LAAoLND//RR+oNW/VGdgexq1weDS41JQ+7cBDUeLy/FO+xyzt3nptAzwiuNl8sahnCvmfM3CfcaCUPL5n5bb7/t+shnud/uqAcI53C0IXDoSUdnR/zWdGQoeQ28fcYHk8xC6uMIgnqlAkMbGvV9O3pO3gysLAWuXXatv1fb3Z710t3Wp+fOxi+exCvR5HjrxFLG51ubdcwPMelc8oei/mQZTZ0M4TLp/Og3KZmF9Lp4Na7OGIpJx0PZ0/IY0wAAvValwlQNCTC9SPczGVvGx5bBS8e93kX6Bpgxyaw14ExJYyQcrbMaVWrlotMLR+4mm9Zkpn5xg0m3ssSfKsEz0hiKGnvmUomCzsbQ2Lzk927ry/ArlxFYlmk2IKdOznGfb3Lg3T2m/b0Siw1j0XiyTDT2yqsryfBZODnbjzrLVpum3iwopcUdp90zHg2u5kbi2jrNBlPW8bW1WfeNJ7qkHbwslEfQC8vg45GUDrl7e5EGWbupHHnQ0GlfYupPfvhzkIjH8oaZ5IU317W7XdnuwLhzq0w6ZHwyZYBvyu4tWA38MfsvHm5qrGef7Npk/M4/smmgaCQGZ76A0nU7Kz8SBX1vlk4XeZl1hf7ht+w9zlCH642aZLs6kE3QuZfZY4BzwpsseDwmpxPG+3RRUUWBc10F0tmo6FyP00CnOWJVDY+G1DrNVIi6/5y8BTb32cKh2Oxknkw1jKChKNrVY9EbVIwpPNCLiVoaa2CrXquhvJrdt+kxldqTx90oBRIFLbaNw9xi4oNL1IDx0XAEAEU4GPHMrwEAbt/Tkv5iWBXEbGYbVu0W1snQ4SotezuV87YjtjTi0lTCHYnDGFxno3QHcXgKuDiuhMMMLnzKlpX+/kooGo35k+1HjPWJTT15DKq6OgzDAIaC+dllTJEI+6nrwdFuggPKrh7dP3yTNjPOjqStlrDOAweM2/r0B+7WXxkDJ4aoG+x8RLupmzI/PHEA4qBDdG8P+ZF47t3eFINBSK1csvgLqPH8AT6BhoGtXoYedoUDAxErAfL0iAyJgzYzYjdSHqHTAybZct3kYx013i+4KRPF2gA8CyJ229SE65LzdDq3mMEWczwWm761ZjJr4e2RC9dM+uByIBaJeuepC+sLezWl9O0kI1HQP34n5cb014+Wosp+62ZxlW6b2nCB5kpuilE8PTxFPzjyFeoedWey5cjMfKKjFf/gUuyVExGbVWmuz/CrNtg18F+tBjgaMa8nFAjxK1F1emXAH4OmRSwSCwdDRJdG4LlmzKQZZ+B//2YuWQYNkqVd1KD+jScK+9rFp/xRjm475RFKfnsO/1Js0wVP6owK63qB8cSkn5ssyFg8LZaPbjIP8eShghdecp6+zo7xNmtT7j04WqDylgIzKdebBlc2tZr+//3KOiU/nF+xeFbpWkKG/naJuyqboGHt3v59WX0smIycnGVL9Tta1OkpyTkvv83u3l4px+NZBa99wn/yyYNSdiWNvBmcbKwth6+cm9yxT1ComyFpEIO+25A5L5heJK+Msf8lqkNVJApQFMDU+KQX/CTZTOKuLeIU6V6hrnCLPl6vo5O+C5+BzY3KVptofZZI0E02xbe+zDXXNNkyaoyOf/waf2rd1x8q+nJbQnjmBddn1/1J94gdp006hBc8NumQbEO+EBY91KnFcRTXSPQs55fB1u20m2Y00QMH9Nse+lYXczBwhbFRN32X67aDjF23uezYnPKa4SnuDYfCtSR9iC0QiYLe2iraSMidEz77aXh0KvbhsDwtfIoNrGLlGR5Mbg8mwydd5CdT7FfusICdnfRjgcpe9MSsJmLVG99/h251NabVqa6Ohxhp5mU5ird18l886QV1IBxtxnKcengdupfBo19yAADa14vq0ssGKxCJgv7yAXmG9mA4OjIRvDlDuZgaDehtRW66Kq4Yn0nnCqnGnltMwGS4Tou2NLPR+kkvG7W4awv/QTooiqAY0tasMOg0t3cCU3JOlCYSevn9JYuVlanXQwf1g+tzrff05lH8xbHY57bnOn2XJ+Ch6oCBcn9HQ9TVeGiDrLFYZqdwwetXqaL967nS2QXR0ZImC51SgRULcD2hheWsaZochMKJjPd3mM6dcQbkml7A3KA/usmO3M99t2V2kXz1HO0X4lqsTg8MOiQQVjg9iDNZDOaN4gCEhq560/fZia/B4H1YbYA3/ckMr6pQ7Cbq2r4xJ8OuZBb0xRspsdgCGyAxwMRkxhagsUjUmrwT3pwmr8+BUTdtZD92QFwuPRZN7OtgpkmDVjsqb91cNia9tKBbHLhSTWp1KfHQaBzxhRTckEhXtxmO0L1NoM3GNkhZWKb8Y+cScIrUMW+Fsb29yBWR7UX726k/T9auG/mx1lF//e25DCGByCxo7uLbhQv63u3q+w4Yctdb8wpZd+7OE+3KRpNNkVvBrc06sROHQmH61xDi2CVdK6SZs1pXNErG4iTvZUYTDs3oIAAjfmCOAU1SSR+PkKNugKFAi6e4N2sreczugdsQbnhHrJrhdJvh1K4M/c2KtZA8NYNiKX8cOp0jg3iyXWLZln76yYmUzQ4LcJipQUhUSiUQJAJBery3WZU4jgpUNoNKhTQagS9nCyE4eOfIOY+PLs25grDDxhf3U6/7T1/KtXihLIYKV9/7e9FSyrrMgtZpVTotPfrOzMXv2qZ5ZFD+Qzp1JiVSLTYtAv05u0lQdGJsfGV8OEUULZ22ReouEtNpUa1WkTH/lw2bEbnJX8wuMzAYHydActYfGxv+2oPmxnq6lEDCfM0N5A5CyixoW70eGn/Ti+TVyaT5eJ30esPBQPx7X5WyYEd3Jq3yJgWVqyAhECR6G8EjB7OmJNOZWiCjUdDdhAgcOzEU8Hp6XZ7D71qPtkHjRFQ4fMMhs6AP7xbnSJ254OMmUFpaDbZGvVaLBQNCixh72lLMdLjmbIUjXFJXJolIhLy3X9nfTpd/8FIYQuC9BcZVqlXWMgtarrCGcL7yRf0qR/3+UFyPV5Zj0NGmZtwyPwDHL1MWeboBw40V/ORd+htFIiT3BQCA06ecx84Hmxzarm7KkNjehcPi0qtTQo9n0gsajCTBGTGePIhkTPgJJFmorYCdGDw+MjnxkeXTCXDvNim7lUZlnfsK4cmDdLmMK/PkxoJgMiwZzVOocq6OeRx9vJnX7AvabKL410sE7yO2tiKbGpE7WkGLVYFiUu5ysPgbTkHgetXz4A9e0Ds7Mb9FzgNj5ooLZz0yKvqz9u8z8/qkXXfjOczfQuo9IDBgBwA/YCeKoRny5gJQqxAAEr0ORXsDUkjJWxmpLEFvbQHbepEmi7JBTCggL3m9wOOXgWuVVCvpQWtPV0ExVCaYICTXAAvNuHRYgNGg6LKBWIw+HrtJ0OcK6waTFaMOVVGCBs5VsBQmCQL5OLk2VbsFNJqEBnkKJ32qhKi5P2UW9N13GrItxyYQuRaR1+MJ2MMlGUYFkuddc0mvRxXCpBcYdKgWBzv7AVQ8/IMUPmo215H1SjA0k+s1qAJEYwCuaT+xSP2VMYTn8ZGdgqd2VNYIzcWf2nAom6vXZNFkWyO50uiwiEhbcIuZuHsofKSEkZOCdpGPh3YXdfe5qDhBLyTnaCaLdNkx8vb2wN5eTbnCF4WbuRCHudARjin84JKsxyJHheVfOizAsz4LVq1SoChCEGScIAlCTomXMSZYWYJmphNXFOvllDQP7ZbhhDGTjgoPpDDl9tyJTOnVdndtyfAkiiIoiqgAIAiSBAh3+skGpbIEXTjMOtiQjKtVp3NoJzhxITY0zk73uqMZN+mKODuG8QWDIfoCRlFKlJ/vp1+QLSR8ObnaGpMZWUhtOsBY2HYTdUPgYjflunhQFIlE6SPBUIAqECIBVBgZjad4xisBstiFGSYdcngXthKQOK6VX9APfSPl1H3uoJgZbUmgtT3tDE26EsNTxOhUTKNVq3HVrk50z1ahOzl4p2Zfv8y/hpApiUxH8DhBYig4OUzLJduqVHCIdZhpQTMxu2TEjWKzHbRaKWVnu42oVUheGxq6g1xHGQAQToAln/SGv6KQ/CnlF7QQ6tPWfuVybYqe9mxtAAca0I8vrtRbBTUA4eELxmcWIzFCEU3Am27UpMM22ZUACP1xr4yxnRG58895s5qzheFQFMmo47zeJFPCEYmC4RlyzI2cHAaMuHl+pEGHGnRoNEq2mUGblfpqFWjmSaYogs6x/rEoYKVRsjxDzoWzchNNoP4oLSt/FNRpSYdZqKCnF1OcM2b+OS/YnGPmVeFw65Nmlqm/jHa/SoUM9DFPIukHLxlmWQKGQjpIiUU2QTPLqxXIYwdS1FO+omgWWGUhL3DSkbTaCQDAjclYKIAkM3yISiVULjs7U4Ik1jrwo9+lKA/++O4VML8ivTCatyxBNI5cniKSWTPqvtcjZdE5Ecgm6ONnQ6L6/GVDFgXv61Zsu03Zaue767kXtS8lTGp9YZm+gGE7gWxwB/VYNPHyyfjVGUyL07k94R+aG3gMjx1Atm0CybFWwRtrzWkdUPMSjdPX26VJklmcbmsbYpazkSVL+W1o2J2fWYMCPhClM+9SSqb00J344Of0LY7M8Y1si9pTxqUWAyDzErTywkQb7Cb2Av7WnyBMRRRvdITzZRjePkc/gIERCKzrlzGcnDwYhPEf5Ep9O1fovZVH0MVYWzIj6WuJC2zZ6A/Fb+9hj8qgxfR3SbxK9Ti2p7eOZwJmG5NmnIGJSXYVHLia1t5ehNu3iRErNDCYYNzYAj3DudMKms2gyUK/klsRlaMOZDxtgeM4AeLrUtZqgAoD0RiIF7b4cnr0fUOQ4dxz78tz04TZZpQQMZA230QCTk9kNWU2QOS2dt3Kcuz9C7FPxuhTCkN4jwwK6mlt0gkqS0pveNfarMtmL0GlMholCACDvtdd1B/j/rbZEK64pYGhQKUkPamt4n5xkumfXXS3xGxA+psV6YXRpSGD5oZHQ9z7sjnPCqU0cI0FLtJyHIXz3odLP389ZXxr6bTBnogVCwwvjLpJDAVb7Ehr8jdvMmeVtc2qjIls3svE5qCyIbDZAy/aWCBwRIDlRCsBMmm3APcK6eRcY+duAou+KBly2QbR9FXp//63KeZKyQR98VrWedLpxcpceIWLdiPS7ShRHgECmxA414ATNrQZz1zghmsUcPY4TMpEo6SoxY55UWfY/TVvPztpJMUNksEN5L0rYIpjw7hXKlvQ6YsLikKuXs55Ee5uutdIq0HmTC/sNyC8RVDG2NlDu4HTQ4nywxuAuQziBGivp5zCeZHLW466M/drdZhTkueFi6/RRJehFpX8gv72n6oFioDXjbirX0TIUWwvZwZYD70qeFKtKIadCc+6g2g1INyqf+6iiQIbGVrrqOH24g3CYaA1DWuDxB6VtQ5MzSdgTx/1ehBapUJAvQLOEV7ygTND0rMk0C3GOR5HKTMjBZJB0DmWj8/ICy85Jfc2zo2QNS159dCzrtBnN1NamA7u0WpNikcG1en5ZyGjDuPZwAfM7AnuooliuTqVSLaDUsYJABfAZgqDRIGiKVkVgiCvjNGXx95e5PAAO90QmsgCJc7LjDCNY0pvg0kgg6DlyjV8ZX9Wo5nXPCrjHJvzQ7FXTqe4ld/6ctau0lxgK3UItJjhN0rPP0u4jYqaPZEXDKUEjSkS9gYyFAEKFCESgFfgJpxRN9vmGTp/OzbTMQ1oIsOu5pJT3O410r1GSF4Pqb9d6FyyQihiZE2yF3j63BJ1eqaJVS8l+jqLiBB8iwPPeEEmB/s858AXJBx1wFVA00HJaNSkRg0CYYTgjIx3bZFZAbA1/47NCK/otGT1BSUo/Jdf0AX6drOulAyL1qAWJej0vd2aDg2Phk5fJ3pvszQ25TES3JTFXM5bKm94zqaAFqtiayt5nb9KfGZ40ya67aDNhohad2IDIb+g8xZIvPhrrx/BurpkW76ctzwK01uRl4CMhiIAiPtQuxHhmtGyAHvxvHu1oH3aLciXD2DcjhzCDQlomeSI05U3M1IgMgg6vfVJMdjVKXRiEAx1pdfHJZvdL6lwtUqjun+PUsjdHPpAkmdPZGNXD7qrh358ZQycHZOyE14r7kQCwVBEVEA6G7zMSLqPWMkUPTvNLNEAgbq8cCVw4Qpdlf/sU9bmxqyHsb8PffA+Ol8jxCNUYaTZQIQT4M2L1Oayj03az7mCc65gS6dNjSP9aXnNHEC/npE1fCCXs79jM8CUigu3EKYriBDcXvLNTxKxKOH3sSGdBqsKrmIoYR2qbKyLm/3lbzjBrJecXV95VVrdHG+dXBl77ZW/2i4dXphC3k764WAkaVsj6fGcVhsWI1KGIq5ql3zk+TFijlMYdE+fQlovv4s3iFvzrHy1WjQaRxjrWZQvGAmvLznQpufOUEwkiugJOFOjn9Lq5rg5I0f2JL9YiiLoWVfKko9ag7qpzSrwvdnCFJLhOqnHzgfhGuNP/Q3IWNOXNxq1ysnD3ZonGctBLEMzlPL8vpS45OA++lAlnF1NsscDY3K8e4W0m5D1mB3YsRm5Ismw2XCUYYR+4mHLEw+LftfLx1Iqlbmlc9Y68NBuOmmixMCNefZlvR34nkN0Dm/WFSpSAqhALBZ1NJqIRonzI5S++xwgFkVbGhQFDlojLnKEEwaxmxCbsVhVyJVDJZocGYFr3zM8kvq/oWicSFAviEYUBcbd1oIpVodRW6KsbySS6GijLGBvDHinwCdTdLgmW/uvw7sVYzOJk9mrI5wrvE3yjo5izROpHEoh6P196NHHMwSnZxbjy35Wph12JU89p88tcWPS1kZjjpi0108JkSBJXAksenSTHZPmuk26Y8evqIxsfI+85zakpxmYDUhTnWIElM7fZ7qBfXSTNqyZMdtuQewWdFcPun87bcS//FGJjqqnGdiMhRroxcsalnOEXvYTUIWQDjkWiogSKJFAZpfB7DIhufxArQR6zgXoXiF7miln/8A2tNchw4C9qwdtsVL7+btXYkJer8LA5WkSTXolbbBZupG+VplZFI8doFf2YN7lL9qlJ8swzzWohqdSymwKic8URdAtDhzOFCw77jWye70kTpajslvkiR7A/cApbW+eJS+N51EfqgB6DXWJLgWpP+ACh3elnLuGeuqPSZecv0n4FzZMiRxv9nvFCbpIPH5QublLM+MmXjkdY3zErmZFyaYOyAg3LeIwg8MDyrlFdGhWtuVf3WskrkqkBiHBkh+ZmN9ItaAS2EiC5uRWYlwfcc9W0GrD6nTUf404C03Y1utzhZZlWSoXpkXg41iU2uGrZ2L/8X6svzmxsxODN1/JLTsYUAWJpkrX4yc9fjDsTGyIQlBplFPQHXYl125Ojyfs32eGcWJYYwTdxNFpIhJSps/bhW+3GhIFCrrVhv3ZPWCRs6q3zUg/4AoRrksiOQ7N4F2kvpdWh/0waU9/598ZbEbKeIALCKX395cFphAU1oJurBL+3BRd0Lwky+AeLTMzZTWQyB3lYHjrxBI3hJyc9JqZzkYFr/GAhHHIbCh1vFarxerNGqbVCyxl5nY1WPIhY/NFGVDhgC1jkbcEZOyNVlxB8zqLpsONcnj9kV1d6kLivjCErFg/7yULIUubC5ODE0PkiSH68cGtdG+DPQYR5s3+XnQDFRXJ2Gltg9nQkD+7V9nRym/fuBZMXBxPySYWeHkIh9eThVfCmpHDuxW8hf4zEo0mfneOftl9t1P/ttpRIcUtTFERLJfboLWgEtiQgm5tVGQ7qVFCESXokezU9YTdSMrr/XCXyoWx5IzAnAhMiKTLmkmLuBbi3/9Zro/z+2ORCC3oV06DZLliQmDHHAivFhQAMOoq1M2oZDaGoPu78f5utmJJVCsC9xqxvxeVRdNQiIXvJ51gMI7j9MR1jYClZJZ8KZsCLX74I+zZggpsd7YRESfol49FuPEygbNWGZ77bgu3fUerA+clC7MhsM9dNmD7GLlkXQyCgXgw4AcADPRi5gZ97rknSz5wLG3Cyx0diPBOtQLbnW1EijtCM5m5WVforRNL6eGO7ZtE3D0rFtiTRa742uEBBM6tqqbG+iWjRCYHrwdNgWRs82zUKj6/Db84Fi/9tG1oJfe30xMxCs/2MXns80MoAOg4J1jR1VwlAeMiIVrQ/ZuQ+vVEw6I/ptNlDR4Xg1Nn3J9d9799hp6+pdSoUBTltsXZtRmrn0+Uy6kX2+vf0YAdGcRHp9gSJV7PS5jV5y19xDOga3CRMkLXrbsgXn+iXp8opaABAG+cYpN4aJxAUb6X1tmogE79+ZtE5bvz6U0uhdBs4pc714CIE/Qjg+qZxfjYPDuivHFy6cTv2Xu88HI2JmqxFkxMutkd1uvRVltBhhBTod/bjPQ2I6W53i7eILhx5cO7RUw35C1Pk7evttkA7umvTpeucEpkQ/O6z/B6d/ACHQUKetId4+6wZOkVyUy54rIsGlajdIKW1lk0L1/Yq0EUivFba+O31ph1IYrxQdKQPSVeIy+iBc0UakLePVH8lr8cDtxt5zauff2d+ddPrrx+klbNT3/QXcqDyQu3Vs6AJ1aCYG19IK6a6rZKQ8oIzb2Dj4yXYtkoLhU1BgtEhZE6TYKebJKcGFbe6rYqplCTQ9qkpudfHOcGK370Xza3t8om04wV+hPzbOtypseXXJ+43t1LYla83YEN9G6MGoTKpyJ+R5NeIaPf1mrDWm3YzCIdOlgNJFYDCY8P4YbwZCzwSIdZLWnRj+bt4UtHox+s9vYCpaIiBC2ZbX36bX2sSc1YI2vBBDe2aNErSvZN5xYTr5yO4VoMRRG1OqFWUVfR9jYktDEqkzc8/y8AAP//w1pT3Ty9bnsAAAAASUVORK5CYII=;" vertex="1" parent="1">
          <mxGeometry x="553.06" y="-259.53000000000003" width="190" height="114" as="geometry" />
        </mxCell>
        <mxCell id="zltHlrUEb8MR5FjfzfhL-15" value="" style="shape=flexArrow;endArrow=classic;html=1;rounded=0;labelBackgroundColor=default;strokeColor=#666666;strokeWidth=2;fontFamily=Helvetica;fontSize=11;fontColor=default;endSize=8.092592592592593;width=12.407407407407407;fillColor=#f5f5f5;" edge="1" parent="1">
          <mxGeometry width="50" height="50" relative="1" as="geometry">
            <mxPoint x="470" y="-145.52999999999997" as="sourcePoint" />
            <mxPoint x="545" y="-145.53000000000003" as="targetPoint" />
          </mxGeometry>
        </mxCell>
      </root>
    </mxGraphModel>
  </diagram>
</mxfile>
